<svg width="24" height="25" viewBox="0 0 24 25" fill="none" xmlns="http://www.w3.org/2000/svg">
<path fill-rule="evenodd" clip-rule="evenodd" d="M9.87862 2.87868C10.4412 2.31607 11.2043 2 11.9999 2C12.7956 2 13.5587 2.31607 14.1213 2.87868C14.6839 3.44129 14.9999 4.20435 14.9999 5C14.9999 5.79565 14.6839 6.55871 14.1213 7.12132C13.5587 7.68393 12.7956 8 11.9999 8C11.2043 8 10.4412 7.68393 9.87862 7.12132C9.31601 6.55871 8.99994 5.79565 8.99994 5C8.99994 4.20435 9.31601 3.44129 9.87862 2.87868ZM11.9999 4C11.7347 4 11.4804 4.10536 11.2928 4.29289C11.1053 4.48043 10.9999 4.73478 10.9999 5C10.9999 5.26522 11.1053 5.51957 11.2928 5.70711C11.4804 5.89464 11.7347 6 11.9999 6C12.2652 6 12.5195 5.89464 12.707 5.70711C12.8946 5.51957 12.9999 5.26522 12.9999 5C12.9999 4.73478 12.8946 4.48043 12.707 4.29289C12.5195 4.10536 12.2652 4 11.9999 4ZM9.33199 8.4453C9.63834 8.90483 9.51417 9.5257 9.05464 9.83205C8.50134 10.2009 7.97036 10.9104 7.55122 11.6289C7.46707 11.7731 7.39037 11.9126 7.32171 12.0429L8.44715 12.6056C8.94113 12.8526 9.14136 13.4532 8.89437 13.9472C8.64738 14.4412 8.04671 14.6414 7.55273 14.3944L5.55273 13.3944C5.08755 13.1618 4.87831 12.6115 5.07146 12.1286L5.99994 12.5C5.07146 12.1286 5.07139 12.1288 5.07146 12.1286L5.0722 12.1268L5.07331 12.124L5.07665 12.1158L5.08774 12.0888C5.09709 12.0662 5.11033 12.0347 5.12736 11.9952C5.16137 11.9162 5.21063 11.8049 5.27417 11.6693C5.40083 11.3991 5.58644 11.0278 5.82366 10.6211C6.27953 9.83965 6.99854 8.79908 7.94524 8.16795C8.40477 7.8616 9.02564 7.98577 9.33199 8.4453ZM10.6349 8.06903C10.9575 7.9425 11.3227 7.99205 11.5999 8.2L15.1055 10.8292L16.9999 9.88197V9C16.9999 8.44772 17.4477 8 17.9999 8C18.5522 8 18.9999 8.44772 18.9999 9V10.4784C19.0002 10.4923 19.0002 10.5062 18.9999 10.5201V22C18.9999 22.5523 18.5522 23 17.9999 23C17.4477 23 16.9999 22.5523 16.9999 22V12.118L15.4472 12.8944C15.1084 13.0638 14.703 13.0273 14.3999 12.8L11.6944 10.7708L11.0865 14.1142L14.1507 16.7407C14.3432 16.9057 14.4658 17.1376 14.4938 17.3896L14.9938 21.8896C15.0548 22.4385 14.6593 22.9329 14.1104 22.9939C13.5615 23.0549 13.067 22.6593 13.0061 22.1104L12.5496 18.0025L9.34915 15.2593C9.0793 15.028 8.95249 14.6708 9.01607 14.3211L10.0161 8.82112C10.0781 8.48013 10.3122 8.19555 10.6349 8.06903ZM10.4061 16.5862C10.9108 16.8105 11.1381 17.4015 10.9138 17.9061L8.91375 22.4061C8.68945 22.9108 8.09849 23.1381 7.5938 22.9138C7.08912 22.6895 6.86183 22.0985 7.08613 21.5939L9.08613 17.0939C9.31043 16.5892 9.9014 16.3619 10.4061 16.5862Z" fill="white"/>
</svg>
