<svg width="24" height="24" viewBox="0 0 24 24" fill="none" xmlns="http://www.w3.org/2000/svg">
<path d="M5.89532 7.21411C2.65063 7.21411 0.0108643 9.85388 0.0108643 13.0986C0.0108643 15.1131 0.969177 17.2791 2.85922 19.5364C4.25076 21.1984 5.62218 22.2664 5.67993 22.311C5.7433 22.3601 5.81933 22.3846 5.89532 22.3846C5.9713 22.3846 6.04729 22.3601 6.11071 22.311C6.16841 22.2664 7.53993 21.1984 8.93141 19.5364C10.8215 17.2791 11.7798 15.1131 11.7798 13.0986C11.7798 9.85388 9.14001 7.21411 5.89532 7.21411ZM8.10196 13.0986C8.10196 14.3172 7.11402 15.3052 5.89532 15.3052C4.67666 15.3052 3.68872 14.3172 3.68872 13.0986C3.68872 11.8799 4.67666 10.8919 5.89532 10.8919C7.11402 10.8919 8.10196 11.8799 8.10196 13.0986Z" fill="#BAC0CC"/>
<path d="M19.3849 0C16.8462 0 14.7809 2.06541 14.7809 4.60406C14.7809 6.17203 15.5239 7.85433 16.9891 9.60436C18.0641 10.8884 19.125 11.7144 19.1696 11.749C19.233 11.7981 19.309 11.8226 19.385 11.8226C19.461 11.8226 19.5369 11.7981 19.6004 11.749C19.645 11.7144 20.7059 10.8884 21.7809 9.60436C23.2461 7.85438 23.9891 6.17208 23.9891 4.60406C23.989 2.06541 21.9236 0 19.3849 0ZM21.0809 4.60406C21.0809 5.54072 20.3216 6.30005 19.3849 6.30005C18.4483 6.30005 17.689 5.54072 17.689 4.60406C17.689 3.66741 18.4483 2.90813 19.3849 2.90813C20.3216 2.90813 21.0809 3.66741 21.0809 4.60406Z" fill="#BAC0CC"/>
<path d="M5.89528 7.21411C5.67117 7.21411 5.45011 7.22714 5.23247 7.25166C8.16623 7.58203 10.4541 10.0779 10.4541 13.0986C10.4541 15.1131 9.49575 17.2791 7.6057 19.5364C6.67748 20.645 5.75883 21.4887 5.23242 21.9413C5.4952 22.1672 5.66067 22.2961 5.67989 22.311C5.74327 22.3601 5.8193 22.3846 5.89528 22.3846C5.97127 22.3846 6.04725 22.3601 6.11067 22.311C6.16838 22.2663 7.53989 21.1983 8.93138 19.5364C10.8214 17.2791 11.7797 15.113 11.7797 13.0985C11.7797 9.85388 9.13997 7.21411 5.89528 7.21411Z" fill="#BAC0CC"/>
<path d="M19.3849 0C19.1599 0 18.9386 0.0165 18.722 0.0479062C20.9477 0.370219 22.6633 2.29045 22.6633 4.60406C22.6633 6.17203 21.9203 7.85433 20.4552 9.60436C19.7944 10.3935 19.1395 11.0093 18.722 11.375C18.9837 11.6043 19.1523 11.7357 19.1695 11.7489C19.2329 11.798 19.3089 11.8225 19.3849 11.8225C19.4609 11.8225 19.5368 11.798 19.6003 11.7489C19.6449 11.7144 20.7058 10.8883 21.7808 9.60431C23.246 7.85433 23.989 6.17203 23.989 4.60402C23.9889 2.06541 21.9236 0 19.3849 0Z" fill="#BAC0CC"/>
<path d="M11.3543 22.4485C11.1607 22.4485 11.0033 22.292 11.0024 22.0982C11.0016 21.9038 11.1584 21.7455 11.3528 21.7446L11.8176 21.7425C11.8182 21.7425 11.8187 21.7425 11.8192 21.7425C12.0128 21.7425 12.1703 21.899 12.1711 22.0929C12.172 22.2873 12.0152 22.4456 11.8208 22.4464L11.356 22.4485C11.3554 22.4485 11.3549 22.4485 11.3543 22.4485ZM13.2136 22.4401C13.02 22.4401 12.8626 22.2836 12.8617 22.0897C12.8609 21.8953 13.0177 21.737 13.2121 21.7362L13.6769 21.7341C13.6775 21.7341 13.678 21.7341 13.6785 21.7341C13.8721 21.7341 14.0295 21.8906 14.0304 22.0844C14.0313 22.2788 13.8745 22.4371 13.6801 22.438L13.2153 22.4401C13.2147 22.4401 13.2142 22.4401 13.2136 22.4401ZM15.073 22.4316C14.8794 22.4316 14.722 22.2751 14.7211 22.0812C14.7202 21.8869 14.877 21.7286 15.0714 21.7277L15.5362 21.7256C15.5368 21.7256 15.5373 21.7256 15.5378 21.7256C15.7314 21.7256 15.8888 21.8821 15.8897 22.076C15.8906 22.2703 15.7338 22.4286 15.5394 22.4295L15.0746 22.4316C15.0741 22.4316 15.0735 22.4316 15.073 22.4316ZM16.9323 22.4232C16.7387 22.4232 16.5813 22.2667 16.5804 22.0728C16.5795 21.8785 16.7364 21.7201 16.9308 21.7193L17.3956 21.7172C17.3962 21.7172 17.3967 21.7172 17.3972 21.7172C17.5908 21.7172 17.7482 21.8736 17.7491 22.0675C17.75 22.2619 17.5932 22.4202 17.3988 22.421L16.934 22.4232C16.9334 22.4232 16.9328 22.4232 16.9323 22.4232ZM18.7916 22.4148C18.598 22.4148 18.4406 22.2583 18.4397 22.0644C18.4388 21.87 18.5957 21.7117 18.7901 21.7109L19.2549 21.7088C19.2555 21.7088 19.256 21.7088 19.2565 21.7088C19.4501 21.7088 19.6075 21.8652 19.6084 22.0591C19.6093 22.2535 19.4525 22.4118 19.2581 22.4127L18.7933 22.4148C18.7927 22.4148 18.7922 22.4148 18.7916 22.4148ZM20.651 22.4063C20.4574 22.4063 20.3 22.2499 20.2991 22.0561C20.2981 21.8617 20.4549 21.7034 20.6493 21.7025L20.7152 21.7021C20.8329 21.7016 20.9509 21.6933 21.0662 21.6773C21.2584 21.6505 21.4363 21.7852 21.463 21.9778C21.4896 22.1703 21.3551 22.348 21.1625 22.3746C21.0165 22.3947 20.8671 22.4053 20.7184 22.406L20.6527 22.4063C20.6521 22.4063 20.6515 22.4063 20.651 22.4063ZM22.4018 21.8761C22.2903 21.8761 22.1806 21.8232 22.1123 21.7247C22.0016 21.5649 22.0412 21.3457 22.201 21.2349C22.3131 21.1572 22.4199 21.0701 22.5187 20.976C22.6593 20.8419 22.8821 20.8473 23.0163 20.988C23.1504 21.1287 23.145 21.3515 23.0043 21.4856C22.8793 21.6047 22.7439 21.715 22.6021 21.8133C22.5408 21.8558 22.471 21.8761 22.4018 21.8761ZM23.5148 20.4249C23.4756 20.4249 23.4356 20.4183 23.3966 20.4043C23.2135 20.339 23.1181 20.1377 23.1833 19.9547C23.229 19.8265 23.2649 19.6936 23.2901 19.5596C23.3261 19.3686 23.5104 19.243 23.7011 19.2789C23.8921 19.3149 24.0178 19.4989 23.9818 19.6899C23.9498 19.8598 23.9042 20.0285 23.8462 20.1911C23.7949 20.3351 23.6594 20.4249 23.5148 20.4249ZM23.5718 18.5967C23.4188 18.5967 23.2779 18.4962 23.2337 18.3418C23.1961 18.211 23.1479 18.082 23.0902 17.9585C23.008 17.7823 23.0842 17.5729 23.2603 17.4907C23.4367 17.4086 23.6459 17.4847 23.7281 17.6608C23.8013 17.8177 23.8625 17.9814 23.9102 18.1476C23.9638 18.3344 23.8559 18.5293 23.6691 18.583C23.6366 18.5923 23.6039 18.5967 23.5718 18.5967ZM22.5511 17.0785C22.4746 17.0785 22.3978 17.0538 22.3332 17.0028C22.2262 16.9182 22.1116 16.8416 21.9931 16.7747C21.8237 16.6794 21.7637 16.4647 21.8591 16.2954C21.9545 16.126 22.1693 16.066 22.3385 16.1615C22.4888 16.2461 22.6337 16.3433 22.7693 16.4503C22.9219 16.5707 22.9479 16.7921 22.8275 16.9446C22.7581 17.0326 22.6551 17.0785 22.5511 17.0785ZM20.8379 16.4406C20.8326 16.4406 20.8273 16.4405 20.822 16.4403C20.7827 16.4385 20.7431 16.4376 20.7033 16.4376H20.3728C20.1784 16.4376 20.0209 16.2801 20.0209 16.0857C20.0209 15.8914 20.1784 15.7338 20.3728 15.7338H20.7033C20.753 15.7338 20.8034 15.7348 20.8531 15.7371C21.0473 15.7457 21.1978 15.9101 21.1891 16.1042C21.1808 16.2932 21.025 16.4406 20.8379 16.4406ZM18.9783 16.4377H18.5135C18.3191 16.4377 18.1616 16.2802 18.1616 16.0857C18.1616 15.8914 18.3191 15.7338 18.5135 15.7338H18.9783C19.1727 15.7338 19.3303 15.8914 19.3303 16.0857C19.3303 16.2801 19.1727 16.4377 18.9783 16.4377ZM17.119 16.4377H16.6542C16.4598 16.4377 16.3022 16.2802 16.3022 16.0857C16.3022 15.8914 16.4598 15.7338 16.6542 15.7338H17.119C17.3134 15.7338 17.4709 15.8914 17.4709 16.0857C17.4709 16.2801 17.3134 16.4377 17.119 16.4377ZM15.2596 16.4377H14.7948C14.6004 16.4377 14.4428 16.2802 14.4428 16.0857C14.4428 15.8914 14.6004 15.7338 14.7948 15.7338H15.2596C15.454 15.7338 15.6115 15.8914 15.6115 16.0857C15.6115 16.2801 15.454 16.4377 15.2596 16.4377ZM13.4667 16.0876C13.4025 16.0876 13.3375 16.0701 13.2793 16.0333C13.1284 15.9382 12.9866 15.827 12.8578 15.7032C12.7177 15.5685 12.7134 15.3457 12.8482 15.2057C12.9828 15.0657 13.2056 15.0612 13.3457 15.196C13.4402 15.2868 13.5442 15.3683 13.6548 15.438C13.8192 15.5417 13.8684 15.7591 13.7647 15.9235C13.6977 16.0295 13.5834 16.0876 13.4667 16.0876ZM12.4438 14.5967C12.2787 14.5967 12.1315 14.4801 12.0987 14.3121C12.0665 14.1465 12.0501 13.9765 12.0501 13.8065L12.0502 13.7787C12.0525 13.5858 12.2096 13.4309 12.4021 13.4309C12.4035 13.4309 12.4049 13.4309 12.4063 13.4309C12.6006 13.4332 12.7564 13.5926 12.7541 13.7869L12.754 13.8065C12.754 13.9313 12.766 14.0562 12.7896 14.1774C12.8268 14.3682 12.7023 14.553 12.5115 14.5902C12.4888 14.5946 12.4661 14.5967 12.4438 14.5967ZM12.8284 12.8304C12.7573 12.8304 12.6855 12.809 12.6234 12.7643C12.4655 12.6509 12.4295 12.431 12.5428 12.2732C12.647 12.1281 12.7663 11.9933 12.8975 11.8723C13.0405 11.7405 13.263 11.7496 13.3948 11.8924C13.5266 12.0352 13.5176 12.2579 13.3747 12.3897C13.2785 12.4784 13.1909 12.5774 13.1145 12.6838C13.0458 12.7795 12.9379 12.8304 12.8284 12.8304ZM14.3777 11.8991C14.204 11.8991 14.0529 11.7705 14.0293 11.5935C14.0037 11.4009 14.1391 11.2239 14.3317 11.1982C14.4468 11.183 14.5643 11.1752 14.6813 11.1752H14.842C15.0364 11.1752 15.194 11.3327 15.194 11.5271C15.194 11.7215 15.0364 11.879 14.842 11.879H14.6813C14.5953 11.879 14.5089 11.8847 14.4246 11.8959C14.4088 11.8981 14.3932 11.8991 14.3777 11.8991Z" fill="#BAC0CC"/>
</svg>
