<svg width="24" height="24" viewBox="0 0 24 24" fill="none" xmlns="http://www.w3.org/2000/svg">
<g clip-path="url(#clip0_147_216)">
<path d="M19.69 4.60938C19.4496 3.63115 18.7317 2.86727 17.77 2.56704C16.8035 2.26478 15.7819 2.48529 15.029 3.15302L13.8317 4.21127L19.5696 6.2996C19.772 5.76757 19.8313 5.18421 19.69 4.60938Z" fill="url(#paint0_linear_147_216)"/>
<path d="M13.0794 2.44339C12.9297 1.44729 12.2852 0.611514 11.3558 0.223342C10.4264 -0.165486 9.38559 -0.0411737 8.57086 0.553764C8.09348 0.902889 7.76419 1.39719 7.57758 1.93494L13.3161 4.02364L13.0794 2.44339Z" fill="url(#paint1_linear_147_216)"/>
<path d="M10.0973 11.8344V24H11.5042V12.3464L10.0973 11.8344Z" fill="url(#paint2_linear_147_216)"/>
<path d="M2.35934 11.3849C1.97051 11.3849 1.65588 11.6995 1.65588 12.0883V21.8897C1.65588 23.0534 2.60252 24.0001 3.76624 24.0001H8.69037V11.3849H2.35934Z" fill="url(#paint3_linear_147_216)"/>
<path d="M12.9111 12.8585V24H17.8353C18.9989 24 19.9456 23.0534 19.9456 21.8896V15.4188L12.9111 12.8585Z" fill="url(#paint4_linear_147_216)"/>
<path d="M12.4985 5.22257L10.574 10.5104L11.8965 10.9917L13.821 5.7039L12.4985 5.22257Z" fill="url(#paint5_linear_147_216)"/>
<path d="M21.0921 8.3505L15.1431 6.1853L13.2184 11.4731L20.4897 14.1196C20.5687 14.1485 20.6505 14.1622 20.7301 14.1622C21.0173 14.1622 21.2872 13.985 21.3909 13.6992L22.3533 11.055C22.7536 9.95676 22.1859 8.74913 21.0921 8.3505Z" fill="url(#paint6_linear_147_216)"/>
<path d="M5.22815 2.5766C4.13658 2.17737 2.92415 2.73692 2.52286 3.83787L1.56112 6.482C1.42786 6.84678 1.61611 7.25075 1.98154 7.38331L9.25261 10.0297L11.1774 4.7419L5.22815 2.5766Z" fill="url(#paint7_linear_147_216)"/>
</g>
<defs>
<linearGradient id="paint0_linear_147_216" x1="13.8317" y1="4.36684" x2="19.7614" y2="4.55414" gradientUnits="userSpaceOnUse">
<stop stop-color="#FF5250"/>
<stop offset="1" stop-color="#FAD424"/>
</linearGradient>
<linearGradient id="paint1_linear_147_216" x1="7.57758" y1="2.01182" x2="13.3112" y2="2.18002" gradientUnits="userSpaceOnUse">
<stop stop-color="#FF5250"/>
<stop offset="1" stop-color="#FAD424"/>
</linearGradient>
<linearGradient id="paint2_linear_147_216" x1="10.0973" y1="17.9172" x2="11.5042" y2="17.9205" gradientUnits="userSpaceOnUse">
<stop stop-color="#FF5250"/>
<stop offset="1" stop-color="#FAD424"/>
</linearGradient>
<linearGradient id="paint3_linear_147_216" x1="1.65588" y1="17.6925" x2="8.68944" y2="17.7732" gradientUnits="userSpaceOnUse">
<stop stop-color="#FF5250"/>
<stop offset="1" stop-color="#FAD424"/>
</linearGradient>
<linearGradient id="paint4_linear_147_216" x1="12.9111" y1="18.4293" x2="19.9444" y2="18.5206" gradientUnits="userSpaceOnUse">
<stop stop-color="#FF5250"/>
<stop offset="1" stop-color="#FAD424"/>
</linearGradient>
<linearGradient id="paint5_linear_147_216" x1="11.2353" y1="10.751" x2="13.5788" y2="5.65598" gradientUnits="userSpaceOnUse">
<stop stop-color="#FF5250"/>
<stop offset="1" stop-color="#FAD424"/>
</linearGradient>
<linearGradient id="paint6_linear_147_216" x1="13.2184" y1="10.1737" x2="22.4764" y2="10.3949" gradientUnits="userSpaceOnUse">
<stop stop-color="#FF5250"/>
<stop offset="1" stop-color="#FAD424"/>
</linearGradient>
<linearGradient id="paint7_linear_147_216" x1="1.51831" y1="6.2388" x2="11.1708" y2="6.49175" gradientUnits="userSpaceOnUse">
<stop stop-color="#FF5250"/>
<stop offset="1" stop-color="#FAD424"/>
</linearGradient>
<clipPath id="clip0_147_216">
<rect width="24" height="24" fill="white"/>
</clipPath>
</defs>
</svg>
