<svg width="191" height="127" viewBox="0 0 191 127" fill="none" xmlns="http://www.w3.org/2000/svg">
<mask id="mask0_690_3233" style="mask-type:luminance" maskUnits="userSpaceOnUse" x="21" y="42" width="148" height="43">
<path d="M21.8219 84.2402H168.962V42.7453H21.8219V84.2402Z" fill="white"/>
</mask>
<g mask="url(#mask0_690_3233)">
<path d="M92.6644 75.2144H88.101C88.0806 75.2144 88.0683 75.2103 88.0561 75.196L84.1241 70.4062L80.1882 75.196C80.18 75.2103 80.1657 75.2144 80.1453 75.2144H76.4913C76.4688 75.2144 76.4525 75.2042 76.4361 75.1797C76.43 75.1655 76.43 75.139 76.4443 75.1227L82.2359 68.0275L76.5117 60.9995C76.5047 60.99 76.5002 60.9789 76.4985 60.9672C76.4967 60.9555 76.4977 60.9435 76.5015 60.9323C76.5117 60.9201 76.5342 60.8997 76.5526 60.8997H81.118C81.1323 60.8997 81.1487 60.9078 81.161 60.9282L84.6105 65.1923L88.1214 60.9262C88.1317 60.9079 88.148 60.8997 88.1643 60.8997H91.8858C91.9083 60.8997 91.9307 60.9201 91.9389 60.9323C91.9437 60.9432 91.9454 60.9552 91.944 60.967C91.9425 60.9788 91.938 60.9901 91.9308 60.9995L86.4968 67.5078L92.7032 75.1227C92.7196 75.139 92.7257 75.1655 92.7134 75.1797C92.7097 75.1898 92.7031 75.1985 92.6943 75.2047C92.6855 75.2108 92.6752 75.2142 92.6644 75.2144ZM117.363 63.4235C115.342 63.4235 113.963 64.6464 113.568 66.7723H120.443V66.6357C120.443 64.9338 119.186 63.4235 117.363 63.4235ZM123.989 68.9533C123.983 68.9613 123.976 68.9679 123.967 68.9725C123.959 68.9771 123.949 68.9796 123.94 68.9798H113.495C113.711 71.4053 115.291 72.7872 117.848 72.7872C119.421 72.7872 121.093 72.2512 123.455 70.9976C123.498 70.9732 123.541 71.0098 123.541 71.0547L123.537 74.2589C123.533 74.2854 123.521 74.3016 123.502 74.3078C121.305 75.2311 119.098 75.8609 117.363 75.8609C112.865 75.8609 109.606 72.5916 109.606 68.089C109.606 63.5865 112.865 60.3172 117.363 60.3172C121.467 60.3172 124.103 63.0749 124.103 66.8681C124.103 67.4816 123.997 68.9084 123.989 68.9533ZM145.207 57.9446C143.925 57.9446 142.883 56.9215 142.883 55.6618C142.883 54.3655 143.925 53.3158 145.207 53.3158C146.488 53.3158 147.532 54.3655 147.532 55.6618C147.532 56.9215 146.488 57.9446 145.207 57.9446ZM143.331 75.2148C143.294 75.2148 143.271 75.1924 143.271 75.1557V60.9592C143.271 60.9307 143.292 60.9083 143.316 60.9021H147.089C147.102 60.9041 147.115 60.9111 147.123 60.9217C147.132 60.9322 147.136 60.9456 147.136 60.9592V75.1557C147.136 75.1924 147.111 75.2148 147.081 75.2148H143.331ZM99.564 73.0766C98.8835 73.0766 98.1866 72.9809 97.3855 72.7669L97.3937 63.6599C98.3317 63.3623 99.1472 63.2217 99.9544 63.2217C102.57 63.2217 104.326 65.1458 104.326 68.0035C104.326 71.0853 102.456 73.0766 99.564 73.0766ZM100.59 60.3192C99.5252 60.3192 98.4502 60.5128 97.3222 60.9001H93.5681C93.5375 60.9001 93.515 60.9266 93.515 60.9592V84.2402C94.6492 84.0853 96.0388 83.6817 97.3876 82.7237L97.3855 75.6428C98.3113 75.7733 99.0756 75.8609 99.8134 75.8609C104.955 75.8609 108.282 72.7872 108.282 68.0279C108.282 63.4907 105.116 60.3192 100.59 60.3192ZM136.461 71.8977C135.286 72.5133 134.236 72.8048 133.249 72.8048C130.921 72.8048 129.525 71.164 129.525 68.4164C129.525 65.2367 131.307 63.1801 134.062 63.1801C134.822 63.1801 135.562 63.3656 136.461 63.7712V71.8977ZM136.461 53.3843V60.8157C135.36 60.5019 134.389 60.3571 133.41 60.3571C128.937 60.3571 125.559 63.7203 125.559 68.1881C125.559 72.6356 128.538 75.8601 132.638 75.8601C134.058 75.8601 135.386 75.5055 136.95 74.7024L136.948 75.9844C137.98 75.7888 139.165 75.377 140.334 74.5515V51.8637C139.185 52.0166 137.824 52.3998 136.461 53.3843ZM160.206 71.8696C159.07 72.5239 158.095 72.8378 157.224 72.8378C154.731 72.8378 153.237 71.2031 153.237 68.4453C153.237 65.3125 154.997 63.2111 157.613 63.2111C158.314 63.2111 159.164 63.4781 160.206 64.0285V71.8696ZM164.083 60.7285C164.083 60.6408 164.007 60.5715 163.921 60.5715L160.872 60.5756C160.829 60.5764 160.788 60.5937 160.757 60.624C160.726 60.6544 160.708 60.6955 160.707 60.7387V61.2564H160.629C159.221 60.6408 158.021 60.3575 156.838 60.3575C152.62 60.3575 149.314 63.845 149.314 68.3149C149.314 72.8337 152.273 75.8626 156.677 75.8626C157.856 75.8626 159.366 75.7811 160.78 74.1586V75.9849C161.78 75.7729 162.959 75.3489 164.079 74.5458L164.083 60.7285ZM66.0537 71.6621L75.5238 71.6581C75.3553 72.9254 74.9034 74.1389 74.2016 75.2087H64.3494C63.1437 75.2087 62.1525 74.2772 62.034 73.0991C62.0279 73.0808 62.0217 73.0645 62.0196 73.0482V54.4205C62.0217 54.4062 62.0279 54.3858 62.034 54.3736C62.1525 53.1934 63.1437 52.2579 64.3494 52.2579C64.3882 52.2579 64.425 52.2619 64.4577 52.2619L75.5034 52.2599C75.3583 53.3137 75.0007 54.5815 74.1812 55.8371H66.0537V60.9082H74.0994C74.1321 60.9082 74.1567 60.9307 74.1567 60.9633V64.4813C74.1567 64.5099 74.1321 64.5363 74.0994 64.5363H66.0537V71.6581V71.6621ZM54.1992 75.5044C53.2632 75.5044 52.6849 74.7747 52.6849 73.882C52.6849 72.926 53.347 72.2596 54.1992 72.2596C55.0432 72.2596 55.7033 72.926 55.7033 73.882C55.7033 74.84 55.0432 75.5044 54.1992 75.5044ZM54.1992 72.0761C53.2407 72.0761 52.4213 72.7956 52.4213 73.882C52.4213 74.9093 53.161 75.6818 54.1992 75.6818C55.1454 75.6818 55.969 74.9663 55.969 73.882C55.969 72.7956 55.1454 72.0761 54.1992 72.0761Z" fill="#BAC0CC"/>
<path d="M53.7744 73.7345V73.0761H54.2199C54.4447 73.0761 54.7104 73.1108 54.7104 73.3839C54.7104 73.708 54.4652 73.7345 54.1852 73.7345H53.7744ZM55.0394 73.4267C55.0394 72.9966 54.7737 72.8132 54.2587 72.8132H53.4474V74.9473H53.8009V74.0341H54.1279L54.6817 74.9473H55.0803L54.4794 74.0097C54.8044 73.971 55.0394 73.814 55.0394 73.4267ZM167.197 63.2642C166.261 63.2642 165.678 62.5345 165.678 61.6417C165.678 60.6858 166.343 60.0193 167.197 60.0193C168.039 60.0193 168.701 60.6858 168.701 61.6417C168.701 62.5997 168.039 63.2642 167.197 63.2642ZM167.197 59.8359C166.238 59.8359 165.419 60.5553 165.419 61.6417C165.419 62.669 166.157 63.4415 167.197 63.4415C168.141 63.4415 168.962 62.724 168.962 61.6417C168.962 60.5553 168.141 59.8359 167.197 59.8359Z" fill="#BAC0CC"/>
<path d="M166.77 61.4917V60.8354H167.215C167.44 60.8354 167.706 60.868 167.706 61.1411C167.706 61.4672 167.459 61.4917 167.183 61.4917H166.77ZM168.035 61.1839C168.035 60.7538 167.769 60.5704 167.254 60.5704H166.443V62.7045H166.792V61.7934H167.124L167.677 62.7045H168.074L167.475 61.7669C167.798 61.7302 168.035 61.5712 168.035 61.1839ZM41.9835 55.82L41.2969 53.8817L35.4726 46.1179L36.5189 45.8591L46.5612 54.5176L52.4713 52.8319C53.1661 52.6526 53.955 52.6139 54.5558 52.618C52.6982 48.623 49.2996 45.3434 44.8119 43.7495C35.9406 40.5963 26.1864 45.219 23.0311 54.0712C22.0543 56.8086 21.8212 59.6336 22.232 62.32L36.3902 57.414L41.9835 55.82ZM55.1778 54.148C54.6588 54.4843 53.8965 54.9246 53.1404 55.1672L47.218 56.8529L43.2657 69.5063L42.2398 69.8386L43.0736 60.1752L42.6076 58.1675L37.0572 59.7471L22.3882 63.1918C23.5489 68.8235 27.5462 73.7276 33.3726 75.7984C42.2459 78.9516 51.9959 74.3269 55.1513 65.4808C56.5123 61.6672 56.4244 57.6885 55.1778 54.148Z" fill="#BAC0CC"/>
<path d="M42.6072 58.1689L43.0752 60.1745L42.2394 69.8379L43.2652 69.5057L47.2176 56.8542L53.14 55.1686C53.8961 54.926 54.6584 54.4817 55.1774 54.1494C54.9951 53.6295 54.7878 53.1187 54.5562 52.6187C53.9553 52.6146 53.1665 52.6554 52.4717 52.8307L46.5616 54.5204L36.5172 45.8578L35.473 46.1187L41.2952 53.8824L41.9839 55.8188L36.3885 57.4168L22.2324 62.3188C22.2774 62.6123 22.3284 62.9038 22.3877 63.1932L37.0588 59.7485L42.6072 58.1689Z" fill="white"/>
</g>
</svg>
