<svg width="24" height="24" viewBox="0 0 24 24" fill="none" xmlns="http://www.w3.org/2000/svg">
<g clip-path="url(#clip0_147_218)">
<path d="M22.4389 14.9959L21.8456 14.5211C20.5931 13.5195 19.875 12.0251 19.875 10.4216V8.42587L21.5317 7.0455C21.9086 6.73087 22.125 6.26887 22.125 5.778C22.125 5.33775 21.9536 4.92375 21.6401 4.60988C21.3274 4.29713 20.9119 4.125 20.4697 4.125H20.4053C20.079 4.125 19.767 4.21875 19.5 4.39388C19.2889 4.2555 19.0493 4.17 18.7969 4.13962C17.7548 2.72175 16.1074 1.875 14.3426 1.875C13.6601 1.875 12.9791 2.00925 12.342 2.256C12.165 1.19062 11.2399 0.375 10.125 0.375H8.37937C7.29712 0.375 6.24675 0.585 5.25113 0.994875C5.21438 0.9495 5.18212 0.901875 5.14012 0.859875C4.82737 0.547125 4.41188 0.375 3.96975 0.375H3.90525C3.579 0.375 3.267 0.46875 3 0.643875C2.733 0.46875 2.421 0.375 2.09475 0.375H2.03025C1.58813 0.375 1.17262 0.547125 0.857625 0.86175C0.546375 1.17338 0.375 1.58775 0.375 2.028C0.375 2.51925 0.591375 2.98088 0.96825 3.29513L2.10037 4.23825C1.95375 4.71 1.875 5.19788 1.875 5.69438C1.875 7.19588 2.54737 8.59462 3.72 9.53175L5.625 11.0554V12.5115C4.96613 12.7822 4.5 13.4291 4.5 14.1844C4.5 14.2061 4.50263 14.2283 4.503 14.25H4.5V23.625H19.125H19.6785L19.4734 23.1109C19.4666 23.0948 18.8914 21.6371 18.7729 20.3205C19.1167 20.5129 19.5079 20.625 19.9211 20.625H20.4637C22.2067 20.625 23.625 19.2071 23.625 17.4641C23.625 16.4989 23.1926 15.5989 22.4389 14.9959ZM19.5 5.40525L19.7651 5.1405C19.9361 4.96913 20.1638 4.875 20.4053 4.875H20.4697C20.7116 4.875 20.9389 4.96913 21.1114 5.14163C21.2813 5.31188 21.375 5.538 21.375 5.778C21.375 6.04575 21.2573 6.29775 21.0514 6.46912L19.5 7.76175L17.9486 6.46912C17.7427 6.29775 17.625 6.04575 17.625 5.778C17.625 5.538 17.7188 5.31188 17.8901 5.1405C18.0611 4.96913 18.2888 4.875 18.5303 4.875H18.5947C18.8366 4.875 19.0639 4.96913 19.2349 5.1405L19.5 5.40525ZM1.125 2.028C1.125 1.788 1.21875 1.56187 1.39013 1.3905C1.56113 1.21912 1.78875 1.125 2.03025 1.125H2.09475C2.33625 1.125 2.56388 1.21912 2.73488 1.3905L3 1.65525L3.26512 1.3905C3.43612 1.21912 3.66375 1.125 3.90525 1.125H3.96975C4.21163 1.125 4.43887 1.21912 4.61137 1.39162C4.78125 1.56187 4.875 1.788 4.875 2.028C4.875 2.29575 4.75725 2.54775 4.55137 2.71913L3 4.01175L1.44862 2.71913C1.24275 2.54775 1.125 2.29575 1.125 2.028ZM4.18837 8.946C3.195 8.15175 2.625 6.96675 2.625 5.69438C2.625 5.38013 2.664 5.07 2.73375 4.76625L3 4.98825L5.03175 3.29513C5.40863 2.98088 5.625 2.51888 5.625 2.028C5.625 1.90538 5.6085 1.78575 5.58262 1.66838C6.47362 1.30875 7.41262 1.125 8.37937 1.125H10.125C10.9523 1.125 11.625 1.79775 11.625 2.625C11.625 3.45187 10.9519 4.125 10.125 4.125H7.875C7.46137 4.125 7.125 3.78863 7.125 3.375C7.125 2.96137 7.46137 2.625 7.875 2.625H8.25V1.875H7.875C7.04775 1.875 6.375 2.54775 6.375 3.375C6.375 3.78263 6.53963 4.152 6.80438 4.42275C6.3165 4.88062 5.95725 5.4555 5.76487 6.099C5.6175 6.0345 5.45737 6 5.29537 6C4.65 6 4.125 6.525 4.125 7.17037C4.125 8.13037 4.73212 8.97225 5.625 9.2835V10.095L4.18837 8.946ZM11.9824 7.125H14.1926C14.922 7.32263 15.4695 7.9515 15.558 8.70413L15.9412 11.9636C16.0421 12.8205 16.3714 13.6376 16.8806 14.3284C16.3875 14.4634 15.9521 14.7697 15.6611 15.2066C15.6431 15.2336 15.6285 15.2629 15.6116 15.2906L14.7435 14.9434C14.9051 14.7007 15 14.4176 15 14.1188V12.7894L13.452 12.6173C12.3791 12.4984 11.5399 11.6303 11.4574 10.5536L11.2684 8.09775L12 7.73175V7.5C12 7.37438 11.988 7.24988 11.9824 7.125ZM15 20.625V18.9506L15.6746 18.501C15.7984 18.4185 15.9424 18.375 16.125 18.375C16.332 18.375 16.5 18.5434 16.5 18.75V19.125H17.25C17.6636 19.125 18 19.4614 18 19.875C18 20.2886 17.6636 20.625 17.25 20.625H15ZM10.5 17.25V18.375H8.93625L8.08762 13.851C8.06025 13.7055 8.01075 13.5697 7.9515 13.4396C9.44587 14.0602 10.5 15.534 10.5 17.25ZM8.625 12.9296V11.9078L9.07388 11.7795C9.75563 11.5845 10.3219 11.1536 10.7081 10.596L10.7093 10.611C10.8195 12.0465 11.9381 13.2038 13.3691 13.3624L14.25 13.4606V14.1188C14.25 14.3419 14.1514 14.5519 13.9804 14.6951L13.0095 15.5036C12.3679 16.0384 12 16.8244 12 17.6595C12 17.901 12.0349 18.1414 12.0964 18.375H11.25V17.25C11.25 15.3735 10.1827 13.7441 8.625 12.9296ZM12.8794 18.375C12.7946 18.1466 12.75 17.9033 12.75 17.6595C12.75 17.0475 13.0196 16.4715 13.4899 16.0796L14.163 15.519L15.3428 15.9907C15.336 16.0256 15.3266 16.0601 15.3218 16.095L15.0469 18.0176L14.5114 18.375H12.8794ZM18.0071 18.5876C17.784 18.4556 17.5275 18.375 17.25 18.375H17.1855C17.0295 17.9385 16.6065 17.625 16.0905 17.625C16.0121 17.625 15.9349 17.6317 15.8584 17.6437L16.0646 16.2015C16.0939 15.9956 16.17 15.7957 16.2855 15.6232C16.5454 15.2329 16.9804 15 17.4495 15H17.5796C17.9929 15 18.3806 15.1609 18.6727 15.453L18.7425 15.5224C19.0103 15.7905 19.1565 16.1632 19.1419 16.5735C19.122 17.16 18.8839 17.7105 18.4718 18.1234L18.0071 18.5876ZM11.2463 7.27012L10.5 7.64325V8.895C10.5 9.89437 9.82875 10.7839 8.868 11.0588L7.875 11.3422V12.6139C7.40213 12.4601 6.8985 12.375 6.375 12.375V8.70675L6.00225 8.61375C5.3385 8.448 4.875 7.85437 4.875 7.17037C4.875 6.93862 5.06362 6.75 5.29537 6.75C5.406 6.75 5.51437 6.795 5.59275 6.873L6.23025 7.5105L6.41363 6.59287C6.55425 5.88862 6.936 5.2665 7.49063 4.81875C7.61438 4.85175 7.7415 4.875 7.875 4.875H10.125C10.3365 4.875 10.5405 4.8435 10.7344 4.78875C11.0475 5.58413 11.2204 6.41737 11.2463 7.27012ZM6.30938 13.125C6.819 13.125 7.25662 13.4884 7.35075 13.989L8.21063 18.5753L7.29187 19.1876L7.70775 19.8116L8.73862 19.125H14.25V20.625H7.57312C6.84375 20.625 6.22237 20.1037 6.09562 19.3856L5.32088 14.9936C5.27363 14.727 5.25 14.4548 5.25 14.1844C5.25 13.6005 5.7255 13.125 6.30938 13.125ZM5.25 18.9079L5.35725 19.5161C5.54738 20.5935 6.47925 21.375 7.57312 21.375H8.4585C8.3295 21.5966 8.25 21.8505 8.25 22.125C8.25 22.3995 8.3295 22.6534 8.4585 22.875H5.25V18.9079ZM9.75 22.875C9.33637 22.875 9 22.5386 9 22.125C9 21.7114 9.33637 21.375 9.75 21.375H16.0571L15.9637 21.9349C15.873 22.4798 15.4065 22.875 14.8541 22.875H9.75ZM16.3489 22.875C16.5248 22.6406 16.6526 22.3658 16.7036 22.0583L16.8176 21.375H17.25C17.5759 21.375 17.8755 21.2681 18.1215 21.0911C18.2471 21.7883 18.4444 22.4438 18.5903 22.875H16.3489ZM20.4637 19.875H19.9211C19.3534 19.875 18.8381 19.5795 18.5501 19.1051L19.002 18.6536C19.2971 18.3585 19.5221 18.009 19.6736 17.625H20.25C20.457 17.625 20.625 17.7934 20.625 18C20.625 18.2066 20.457 18.375 20.25 18.375H19.875V19.125H20.25C20.8702 19.125 21.375 18.6202 21.375 18C21.375 17.3798 20.8702 16.875 20.25 16.875H19.8675C19.8803 16.7753 19.8885 16.6744 19.8919 16.572C19.9129 15.9825 19.6871 15.4069 19.2724 14.9918L19.2026 14.9224C18.8216 14.541 18.3296 14.3107 17.799 14.2609C17.1866 13.6072 16.7914 12.7673 16.6864 11.8763L16.3031 8.61675C16.2142 7.86375 15.795 7.203 15.1927 6.78225C15.5299 6.507 15.75 6.09337 15.75 5.625H15C15 6.03863 14.6636 6.375 14.25 6.375H11.9134C11.823 5.72363 11.6629 5.08462 11.4161 4.46812L11.415 4.4655C11.8766 4.14075 12.2122 3.64838 12.3292 3.07613C12.9581 2.78438 13.6496 2.625 14.3426 2.625C15.7226 2.625 17.0239 3.22012 17.9265 4.24125C17.7165 4.32375 17.5226 4.44675 17.3576 4.61175C17.0464 4.92338 16.875 5.33775 16.875 5.778C16.875 6.26925 17.0914 6.73088 17.4683 7.04513L19.125 8.42587V10.4216C19.125 12.2546 19.9455 13.962 21.3769 15.1069L21.9701 15.5816C22.545 16.0414 22.875 16.7276 22.875 17.4641C22.875 18.7935 21.7931 19.875 20.4637 19.875Z" fill="url(#paint0_linear_147_218)"/>
<path d="M4.18837 8.946C3.195 8.15175 2.625 6.96675 2.625 5.69438C2.625 5.38013 2.664 5.07 2.73375 4.76625L3 4.98825L5.03175 3.29513C5.40863 2.98088 5.625 2.51888 5.625 2.028C5.625 1.90538 5.6085 1.78575 5.58262 1.66838C6.47362 1.30875 7.41262 1.125 8.37937 1.125H10.125C10.9523 1.125 11.625 1.79775 11.625 2.625C11.625 3.45187 10.9519 4.125 10.125 4.125H7.875C7.46137 4.125 7.125 3.78863 7.125 3.375C7.125 2.96137 7.46137 2.625 7.875 2.625H8.25V1.875H7.875C7.04775 1.875 6.375 2.54775 6.375 3.375C6.375 3.78263 6.53963 4.152 6.80438 4.42275C6.3165 4.88062 5.95725 5.4555 5.76487 6.099C5.6175 6.0345 5.45737 6 5.29537 6C4.65 6 4.125 6.525 4.125 7.17037C4.125 8.13037 4.73212 8.97225 5.625 9.2835V10.095L4.18837 8.946Z" fill="url(#paint1_linear_147_218)"/>
<path d="M20.4637 19.875H19.9211C19.3534 19.875 18.8381 19.5795 18.5501 19.1051L19.002 18.6536C19.2971 18.3585 19.5221 18.009 19.6736 17.625H20.25C20.457 17.625 20.625 17.7934 20.625 18C20.625 18.2066 20.457 18.375 20.25 18.375H19.875V19.125H20.25C20.8702 19.125 21.375 18.6202 21.375 18C21.375 17.3798 20.8702 16.875 20.25 16.875H19.8675C19.8803 16.7753 19.8885 16.6744 19.8919 16.572C19.9129 15.9825 19.6871 15.4069 19.2724 14.9918L19.2026 14.9224C18.8216 14.541 18.3296 14.3107 17.799 14.2609C17.1866 13.6072 16.7914 12.7673 16.6864 11.8763L16.3031 8.61675C16.2142 7.86375 15.795 7.203 15.1927 6.78225C15.5299 6.507 15.75 6.09337 15.75 5.625H15C15 6.03863 14.6636 6.375 14.25 6.375H11.9134C11.823 5.72363 11.6629 5.08462 11.4161 4.46812L11.415 4.4655C11.8766 4.14075 12.2122 3.64838 12.3292 3.07613C12.9581 2.78438 13.6496 2.625 14.3426 2.625C15.7226 2.625 17.0239 3.22012 17.9265 4.24125C17.7165 4.32375 17.5226 4.44675 17.3576 4.61175C17.0464 4.92338 16.875 5.33775 16.875 5.778C16.875 6.26925 17.0914 6.73088 17.4683 7.04513L19.125 8.42587V10.4216C19.125 12.2546 19.9455 13.962 21.3769 15.1069L21.9701 15.5816C22.545 16.0414 22.875 16.7276 22.875 17.4641C22.875 18.7935 21.7931 19.875 20.4637 19.875Z" fill="url(#paint2_linear_147_218)"/>
<path d="M15 20.625V18.9506L15.6746 18.501C15.7984 18.4185 15.9424 18.375 16.125 18.375C16.332 18.375 16.5 18.5434 16.5 18.75V19.125H17.25C17.6636 19.125 18 19.4614 18 19.875C18 20.2886 17.6636 20.625 17.25 20.625H15Z" fill="url(#paint3_linear_147_218)"/>
</g>
<defs>
<linearGradient id="paint0_linear_147_218" x1="0.375" y1="12" x2="23.6152" y2="12.478" gradientUnits="userSpaceOnUse">
<stop stop-color="#FF5250"/>
<stop offset="1" stop-color="#FAD424"/>
</linearGradient>
<linearGradient id="paint1_linear_147_218" x1="0.375" y1="12" x2="23.6152" y2="12.478" gradientUnits="userSpaceOnUse">
<stop stop-color="#FF5250"/>
<stop offset="1" stop-color="#FAD424"/>
</linearGradient>
<linearGradient id="paint2_linear_147_218" x1="0.375" y1="12" x2="23.6152" y2="12.478" gradientUnits="userSpaceOnUse">
<stop stop-color="#FF5250"/>
<stop offset="1" stop-color="#FAD424"/>
</linearGradient>
<linearGradient id="paint3_linear_147_218" x1="0.375" y1="12" x2="23.6152" y2="12.478" gradientUnits="userSpaceOnUse">
<stop stop-color="#FF5250"/>
<stop offset="1" stop-color="#FAD424"/>
</linearGradient>
<clipPath id="clip0_147_218">
<rect width="24" height="24" fill="white"/>
</clipPath>
</defs>
</svg>
