<svg width="24" height="24" viewBox="0 0 24 24" fill="none" xmlns="http://www.w3.org/2000/svg">
<g clip-path="url(#clip0_77_445)">
<path d="M6.547 19.9348L7.76465 20.7465H24V19.9348H6.547Z" fill="#BAC0CC"/>
<path d="M15.0708 23.182H19.9413V23.9939H15.0708V23.182Z" fill="#BAC0CC"/>
<path d="M13.447 21.5583H21.5646V22.3703H13.447V21.5583Z" fill="#BAC0CC"/>
<path d="M20.0744 12.5056C21.5009 13.9323 21.5009 16.2452 20.0744 17.6719C18.6477 19.0982 16.3349 19.0982 14.9082 17.6719C13.4818 16.2452 13.4818 13.9323 14.9082 12.5056C16.3349 11.0792 18.6477 11.0792 20.0744 12.5056Z" fill="#BAC0CC"/>
<path d="M3.95499 19.4028C6.34897 15.4272 7.78487 10.9488 8.14897 6.32214L12.5296 10.717C13.2211 9.34875 12.9596 7.69134 11.8803 6.60246L11.4943 6.21331C11.2372 5.95487 10.941 5.73833 10.6169 5.57214L14.6918 5.59037C14.2134 4.13356 12.8562 3.14636 11.3229 3.14001L10.7745 3.13757C10.3829 3.13652 9.99387 3.20037 9.62294 3.32686L12.5455 0.414552C11.1772 -0.276799 9.5202 -0.015356 8.43132 1.06368L8.04216 1.44991C7.78365 1.70663 7.56719 2.00306 7.40109 2.3273C7.23726 2.00175 7.02348 1.70346 6.76741 1.44413L6.38126 1.0549C5.30263 -0.033984 3.64808 -0.310394 2.27375 0.368592L5.16898 3.30653C4.79894 3.17702 4.41036 3.10967 4.01876 3.10707L3.47082 3.10479C1.93788 3.0978 0.572343 4.07239 0.0807755 5.52448L4.15599 5.54278C3.83004 5.70628 3.53208 5.92014 3.27275 6.17629L2.88335 6.56252C1.79455 7.64132 1.51822 9.29595 2.19745 10.6704L6.51776 6.41374C6.22004 10.8611 4.6077 15.1197 1.88533 18.6487C1.27411 18.4749 0.652468 18.3408 0.0239968 18.2471L0 23.5235L9.33522 23.5639L9.31741 23.5416C7.8759 21.7643 6.03962 20.3472 3.95499 19.4028ZM2.84341 23.131L2.03159 23.1274L2.03517 22.3155L2.84683 22.3192L2.84341 23.131ZM5.28173 22.3301L4.46998 22.3264L4.47397 21.5147L5.28579 21.5183L5.28173 22.3301Z" fill="#BAC0CC"/>
</g>
<defs>
<clipPath id="clip0_77_445">
<rect width="24" height="24" fill="white"/>
</clipPath>
</defs>
</svg>
