<svg width="113" height="50" viewBox="0 0 113 50" fill="none" xmlns="http://www.w3.org/2000/svg">
<g filter="url(#filter0_d_657_2544)">
<path d="M8.83308 1.55592H12.3998L14.6568 8.12643L16.9417 1.55592H20.4805L17.081 10.5869L19.5888 16.9058L25.1896 1.5H29.3693L21.4558 21.3513H18.1399L14.6568 13.0194L11.2016 21.3513H7.88569L0 1.5H4.12396L9.75262 16.9058L12.2047 10.5869L8.83308 1.55592Z" fill="#FF0202" fill-opacity="0.8"/>
<path d="M35.8456 21.6309C34.6753 21.6309 33.6165 21.4352 32.6691 21.0438C31.7217 20.6337 30.9136 20.0838 30.2449 19.3942C29.5761 18.6858 29.056 17.8843 28.6844 16.9896C28.3315 16.0763 28.155 15.1163 28.155 14.1098C28.155 12.7118 28.4615 11.435 29.0745 10.2793C29.7061 9.12366 30.5978 8.20099 31.7496 7.51132C32.9199 6.80301 34.2945 6.44885 35.8735 6.44885C37.4711 6.44885 38.8365 6.80301 39.9696 7.51132C41.1028 8.20099 41.9666 9.12366 42.561 10.2793C43.174 11.4163 43.4806 12.6466 43.4806 13.97C43.4806 14.1937 43.4713 14.4267 43.4527 14.669C43.4341 14.8927 43.4155 15.0791 43.397 15.2282H32.1118C32.1861 15.9738 32.3997 16.6262 32.7527 17.1853C33.1242 17.7445 33.5886 18.1733 34.1459 18.4715C34.7218 18.7511 35.3348 18.8909 35.985 18.8909C36.728 18.8909 37.4246 18.7138 38.0748 18.3596C38.7436 17.9869 39.1987 17.5022 39.4402 16.9058L42.6446 17.8005C42.2917 18.546 41.7808 19.2078 41.1121 19.7856C40.4619 20.3634 39.691 20.8201 38.7993 21.1556C37.9076 21.4725 36.9231 21.6309 35.8456 21.6309ZM32.0282 12.8516H39.6631C39.5888 12.106 39.3752 11.4629 39.0222 10.9224C38.6878 10.3632 38.242 9.93449 37.6847 9.63625C37.1274 9.31937 36.5051 9.16094 35.8178 9.16094C35.149 9.16094 34.536 9.31937 33.9787 9.63625C33.44 9.93449 32.9942 10.3632 32.6412 10.9224C32.3068 11.4629 32.1025 12.106 32.0282 12.8516Z" fill="#FF0202" fill-opacity="0.8"/>
<path d="M51.1331 21.6309C49.8885 21.6309 48.6996 21.4259 47.5664 21.0158C46.4333 20.6057 45.458 19.9999 44.6406 19.1984L45.9781 16.766C46.8512 17.4743 47.7057 17.9962 48.5417 18.3317C49.3962 18.6672 50.2136 18.835 50.9938 18.835C51.7183 18.835 52.2941 18.7045 52.7214 18.4435C53.1672 18.1826 53.3901 17.7911 53.3901 17.2692C53.3901 16.9151 53.2694 16.6448 53.0279 16.4584C52.7864 16.2534 52.4334 16.0763 51.969 15.9272C51.5232 15.778 50.9752 15.6103 50.325 15.4239C49.2476 15.0697 48.3466 14.7249 47.6222 14.3894C46.8977 14.0539 46.3497 13.6345 45.9781 13.1312C45.6252 12.6093 45.4487 11.9476 45.4487 11.1461C45.4487 10.1768 45.6902 9.34733 46.1732 8.65766C46.6748 7.94935 47.3621 7.39948 48.2352 7.00805C49.1268 6.61661 50.1671 6.42089 51.356 6.42089C52.3963 6.42089 53.3808 6.58865 54.3097 6.92417C55.2385 7.24104 56.0837 7.76296 56.8453 8.48991L55.3406 10.8665C54.5976 10.2886 53.8917 9.86925 53.2229 9.60829C52.5542 9.32869 51.8761 9.18889 51.1888 9.18889C50.7987 9.18889 50.4272 9.23549 50.0742 9.32869C49.7399 9.42189 49.4612 9.58033 49.2383 9.80401C49.034 10.009 48.9318 10.3073 48.9318 10.6987C48.9318 11.0529 49.0247 11.3325 49.2104 11.5375C49.4148 11.7239 49.712 11.8917 50.1021 12.0408C50.5108 12.1899 51.0031 12.3577 51.5789 12.544C52.7492 12.8796 53.7338 13.2244 54.5326 13.5786C55.3499 13.9327 55.963 14.3707 56.3716 14.8927C56.7803 15.3959 56.9847 16.0949 56.9847 16.9896C56.9847 18.4435 56.4552 19.5806 55.3964 20.4007C54.3375 21.2209 52.9164 21.6309 51.1331 21.6309Z" fill="#FF0202" fill-opacity="0.8"/>
<path d="M68.1921 20.5964C67.8763 20.7269 67.4955 20.876 67.0497 21.0438C66.6038 21.2115 66.1208 21.342 65.6007 21.4352C65.0991 21.547 64.5883 21.603 64.0682 21.603C63.3808 21.603 62.7492 21.4818 62.1734 21.2395C61.5975 20.9972 61.1331 20.6151 60.7801 20.0931C60.4458 19.5526 60.2786 18.8536 60.2786 17.9962V9.58033H58.3559V6.70049H60.2786V1.94735H64.0124V6.70049H67.0775V9.58033H64.0124V16.738C64.031 17.2413 64.1703 17.6047 64.4304 17.8284C64.6905 18.0521 65.0155 18.1639 65.4056 18.1639C65.7958 18.1639 66.1766 18.0987 66.5481 17.9682C66.9196 17.8377 67.2169 17.7259 67.4398 17.6327L68.1921 20.5964Z" fill="#FF0202" fill-opacity="0.8"/>
<path d="M76.7446 21.6309C75.5743 21.6309 74.5154 21.4352 73.568 21.0438C72.6206 20.6337 71.8126 20.0838 71.1438 19.3942C70.4751 18.6858 69.9549 17.8843 69.5834 16.9896C69.2304 16.0763 69.054 15.1163 69.054 14.1098C69.054 12.7118 69.3605 11.435 69.9735 10.2793C70.6051 9.12366 71.4968 8.20099 72.6485 7.51132C73.8188 6.80301 75.1935 6.44885 76.7725 6.44885C78.37 6.44885 79.7354 6.80301 80.8686 7.51132C82.0017 8.20099 82.8655 9.12366 83.46 10.2793C84.073 11.4163 84.3795 12.6466 84.3795 13.97C84.3795 14.1937 84.3702 14.4267 84.3516 14.669C84.3331 14.8927 84.3145 15.0791 84.2959 15.2282H73.0107C73.085 15.9738 73.2987 16.6262 73.6516 17.1853C74.0231 17.7445 74.4876 18.1733 75.0449 18.4715C75.6207 18.7511 76.2337 18.8909 76.8839 18.8909C77.627 18.8909 78.3236 18.7138 78.9738 18.3596C79.6425 17.9869 80.0976 17.5022 80.3391 16.9058L83.5436 17.8005C83.1906 18.546 82.6798 19.2078 82.011 19.7856C81.3608 20.3634 80.5899 20.8201 79.6982 21.1556C78.8066 21.4725 77.822 21.6309 76.7446 21.6309ZM72.9271 12.8516H80.562C80.4877 12.106 80.2741 11.4629 79.9212 10.9224C79.5868 10.3632 79.1409 9.93449 78.5837 9.63625C78.0264 9.31937 77.4041 9.16094 76.7167 9.16094C76.048 9.16094 75.435 9.31937 74.8777 9.63625C74.339 9.93449 73.8931 10.3632 73.5402 10.9224C73.2058 11.4629 73.0014 12.106 72.9271 12.8516Z" fill="#FF0202" fill-opacity="0.8"/>
<path d="M95.3479 9.9438C94.2148 9.9438 93.2023 10.1675 92.3107 10.6148C91.419 11.0435 90.7781 11.668 90.388 12.4881V21.3513H86.6542V6.70049H90.0815V9.83197C90.6016 8.82542 91.2611 8.03323 92.0599 7.4554C92.8587 6.87757 93.7039 6.56069 94.5956 6.50477C94.7999 6.50477 94.9578 6.50477 95.0693 6.50477C95.1807 6.50477 95.2736 6.51409 95.3479 6.53273V9.9438Z" fill="#FF0202" fill-opacity="0.8"/>
<path d="M111 21.3513H107.266V13.1312C107.266 11.9569 107.062 11.0995 106.653 10.5589C106.244 10.0184 105.678 9.74809 104.953 9.74809C104.452 9.74809 103.941 9.87857 103.421 10.1395C102.919 10.4005 102.464 10.764 102.055 11.2299C101.647 11.6773 101.35 12.1992 101.164 12.7957V21.3513H97.4299V6.70049H100.802V9.41257C101.173 8.77882 101.647 8.24759 102.223 7.81887C102.799 7.37152 103.458 7.036 104.201 6.81233C104.963 6.57001 105.761 6.44885 106.597 6.44885C107.508 6.44885 108.251 6.61661 108.827 6.95213C109.421 7.269 109.867 7.70704 110.164 8.26623C110.48 8.80678 110.693 9.42189 110.805 10.1116C110.935 10.8012 111 11.5002 111 12.2085V21.3513Z" fill="#FF0202" fill-opacity="0.8"/>
</g>
<g filter="url(#filter1_d_657_2544)">
<path d="M17.8675 33.3407H12.8976V46.28H9.8982V33.3407H4.92834V30.6825H17.8675V33.3407Z" fill="#FFBC26"/>
<path d="M25.034 37.3169C24.1437 37.3169 23.3482 37.4927 22.6476 37.8442C21.947 38.181 21.4435 38.6717 21.137 39.3161V46.28H18.2032V34.7686H20.8961V37.2291C21.3048 36.4382 21.823 35.8158 22.4506 35.3618C23.0782 34.9078 23.7423 34.6588 24.4429 34.6148C24.6035 34.6148 24.7275 34.6148 24.8151 34.6148C24.9027 34.6148 24.9757 34.6222 25.034 34.6368V37.3169Z" fill="#FFBC26"/>
<path d="M25.5987 42.8749C25.5987 42.128 25.803 41.4763 26.2117 40.9197C26.635 40.3486 27.2188 39.9092 27.9632 39.6016C28.7076 39.2941 29.5614 39.1403 30.5247 39.1403C31.0064 39.1403 31.4953 39.1769 31.9916 39.2502C32.4879 39.3234 32.9184 39.4405 33.2833 39.6016V38.9865C33.2833 38.2543 33.0644 37.6904 32.6265 37.295C32.2032 36.8995 31.5683 36.7018 30.7218 36.7018C30.0941 36.7018 29.4957 36.8117 28.9265 37.0314C28.3573 37.251 27.7588 37.5732 27.1312 37.998L26.1898 36.0648C26.9488 35.5668 27.7223 35.1933 28.5105 34.9444C29.3133 34.6954 30.1525 34.5709 31.0283 34.5709C32.663 34.5709 33.9328 34.981 34.8378 35.8011C35.7573 36.6213 36.2171 37.7929 36.2171 39.3161V42.9848C36.2171 43.2923 36.2681 43.512 36.3703 43.6438C36.4871 43.7756 36.6695 43.8562 36.9177 43.8855V46.28C36.6549 46.3239 36.4141 46.3606 36.1952 46.3898C35.9908 46.4191 35.8157 46.4338 35.6697 46.4338C35.0859 46.4338 34.6407 46.302 34.3342 46.0383C34.0423 45.7747 33.8598 45.4525 33.7869 45.0717L33.7212 44.4786C33.2249 45.123 32.6046 45.621 31.8602 45.9724C31.1159 46.3239 30.3569 46.4997 29.5833 46.4997C28.8243 46.4997 28.1383 46.3459 27.5253 46.0383C26.9269 45.7161 26.4525 45.2841 26.1022 44.7422C25.7665 44.1857 25.5987 43.5633 25.5987 42.8749ZM32.736 43.4681C32.8965 43.2923 33.0279 43.1166 33.1301 42.9408C33.2322 42.7651 33.2833 42.604 33.2833 42.4575V41.2932C32.933 41.1467 32.5535 41.0369 32.1449 40.9637C31.7362 40.8758 31.3494 40.8319 30.9845 40.8319C30.2255 40.8319 29.5979 41.0003 29.1016 41.3371C28.62 41.6593 28.3791 42.0914 28.3791 42.6333C28.3791 42.9262 28.4594 43.2044 28.62 43.4681C28.7805 43.7317 29.0141 43.944 29.3206 44.1051C29.6271 44.2662 29.992 44.3468 30.4153 44.3468C30.8531 44.3468 31.2837 44.2662 31.707 44.1051C32.1303 43.9294 32.4733 43.717 32.736 43.4681Z" fill="#FFBC26"/>
<path d="M41.4204 46.28L37.1949 34.7686H40.2381L43.1281 43.5999L46.0399 34.7686H48.8204L44.6169 46.28H41.4204Z" fill="#FFBC26"/>
<path d="M55.087 46.4997C54.1674 46.4997 53.3355 46.3459 52.5911 46.0383C51.8467 45.7161 51.2118 45.2841 50.6864 44.7422C50.1609 44.1857 49.7522 43.5559 49.4603 42.853C49.183 42.1353 49.0443 41.3811 49.0443 40.5902C49.0443 39.4918 49.2852 38.4886 49.7668 37.5806C50.2631 36.6725 50.9637 35.9476 51.8686 35.4057C52.7881 34.8492 53.8682 34.5709 55.1089 34.5709C56.3641 34.5709 57.4369 34.8492 58.3272 35.4057C59.2176 35.9476 59.8963 36.6725 60.3633 37.5806C60.845 38.4739 61.0858 39.4405 61.0858 40.4804C61.0858 40.6561 61.0785 40.8392 61.0639 41.0296C61.0493 41.2053 61.0347 41.3518 61.0201 41.4689H52.1532C52.2116 42.0548 52.3795 42.5674 52.6568 43.0067C52.9487 43.4461 53.3136 43.7829 53.7515 44.0173C54.2039 44.2369 54.6856 44.3468 55.1964 44.3468C55.7803 44.3468 56.3276 44.2077 56.8385 43.9294C57.3639 43.6365 57.7215 43.2557 57.9113 42.787L60.429 43.49C60.1517 44.0758 59.7503 44.5958 59.2249 45.0498C58.714 45.5038 58.1083 45.8626 57.4077 46.1262C56.7071 46.3752 55.9335 46.4997 55.087 46.4997ZM52.0875 39.6016H58.0864C58.028 39.0158 57.8602 38.5106 57.5828 38.0858C57.3201 37.6465 56.9698 37.3096 56.532 37.0753C56.0941 36.8263 55.6051 36.7018 55.0651 36.7018C54.5396 36.7018 54.058 36.8263 53.6201 37.0753C53.1968 37.3096 52.8465 37.6465 52.5692 38.0858C52.3065 38.5106 52.1459 39.0158 52.0875 39.6016Z" fill="#FFBC26"/>
<path d="M62.6322 30.2432H65.566V42.5893C65.566 43.1166 65.6536 43.4754 65.8287 43.6658C66.0039 43.8415 66.2447 43.9294 66.5512 43.9294C66.7847 43.9294 67.0256 43.9001 67.2737 43.8415C67.5218 43.7829 67.7407 43.7097 67.9305 43.6218L68.3246 45.8626C67.9305 46.053 67.4707 46.1994 66.9453 46.302C66.4198 46.4045 65.9455 46.4557 65.5222 46.4557C64.6027 46.4557 63.8875 46.2141 63.3766 45.7308C62.8804 45.2328 62.6322 44.5299 62.6322 43.6218V30.2432Z" fill="#FFBC26"/>
<path d="M69.3619 30.2432H72.2957V42.5893C72.2957 43.1166 72.3833 43.4754 72.5584 43.6658C72.7336 43.8415 72.9744 43.9294 73.2809 43.9294C73.5144 43.9294 73.7553 43.9001 74.0034 43.8415C74.2515 43.7829 74.4705 43.7097 74.6602 43.6218L75.0543 45.8626C74.6602 46.053 74.2004 46.1994 73.675 46.302C73.1495 46.4045 72.6752 46.4557 72.2519 46.4557C71.3324 46.4557 70.6172 46.2141 70.1063 45.7308C69.6101 45.2328 69.3619 44.5299 69.3619 43.6218V30.2432Z" fill="#FFBC26"/>
<path d="M81.4337 46.4997C80.5142 46.4997 79.6822 46.3459 78.9378 46.0383C78.1935 45.7161 77.5585 45.2841 77.0331 44.7422C76.5076 44.1857 76.099 43.5559 75.8071 42.853C75.5297 42.1353 75.3911 41.3811 75.3911 40.5902C75.3911 39.4918 75.6319 38.4886 76.1136 37.5806C76.6098 36.6725 77.3104 35.9476 78.2154 35.4057C79.1349 34.8492 80.215 34.5709 81.4556 34.5709C82.7108 34.5709 83.7836 34.8492 84.674 35.4057C85.5643 35.9476 86.243 36.6725 86.7101 37.5806C87.1917 38.4739 87.4326 39.4405 87.4326 40.4804C87.4326 40.6561 87.4253 40.8392 87.4107 41.0296C87.3961 41.2053 87.3815 41.3518 87.3669 41.4689H78.5C78.5583 42.0548 78.7262 42.5674 79.0035 43.0067C79.2954 43.4461 79.6603 43.7829 80.0982 44.0173C80.5507 44.2369 81.0323 44.3468 81.5432 44.3468C82.127 44.3468 82.6743 44.2077 83.1852 43.9294C83.7106 43.6365 84.0682 43.2557 84.258 42.787L86.7758 43.49C86.4984 44.0758 86.0971 44.5958 85.5716 45.0498C85.0608 45.5038 84.455 45.8626 83.7544 46.1262C83.0538 46.3752 82.2803 46.4997 81.4337 46.4997ZM78.4343 39.6016H84.4331C84.3748 39.0158 84.2069 38.5106 83.9296 38.0858C83.6669 37.6465 83.3166 37.3096 82.8787 37.0753C82.4408 36.8263 81.9519 36.7018 81.4118 36.7018C80.8864 36.7018 80.4047 36.8263 79.9668 37.0753C79.5436 37.3096 79.1933 37.6465 78.9159 38.0858C78.6532 38.5106 78.4927 39.0158 78.4343 39.6016Z" fill="#FFBC26"/>
<path d="M95.8317 37.3169C94.9413 37.3169 94.1459 37.4927 93.4453 37.8442C92.7447 38.181 92.2411 38.6717 91.9346 39.3161V46.28H89.0009V34.7686H91.6938V37.2291C92.1025 36.4382 92.6206 35.8158 93.2482 35.3618C93.8758 34.9078 94.5399 34.6588 95.2405 34.6148C95.4011 34.6148 95.5252 34.6148 95.6127 34.6148C95.7003 34.6148 95.7733 34.6222 95.8317 34.6368V37.3169Z" fill="#FFBC26"/>
<path d="M101.474 46.4997C100.496 46.4997 99.562 46.3386 98.6717 46.0164C97.7813 45.6942 97.0151 45.2182 96.3729 44.5884L97.4238 42.6772C98.1097 43.2337 98.7812 43.6438 99.438 43.9074C100.109 44.171 100.752 44.3029 101.365 44.3029C101.934 44.3029 102.386 44.2003 102.722 43.9953C103.072 43.7903 103.247 43.4827 103.247 43.0726C103.247 42.7944 103.153 42.582 102.963 42.4356C102.773 42.2745 102.496 42.1353 102.131 42.0182C101.781 41.901 101.35 41.7692 100.839 41.6227C99.9926 41.3445 99.2847 41.0735 98.7155 40.8099C98.1462 40.5463 97.7157 40.2168 97.4238 39.8213C97.1464 39.4113 97.0078 38.8913 97.0078 38.2616C97.0078 37.5 97.1975 36.8483 97.577 36.3064C97.9711 35.7499 98.5111 35.3178 99.1971 35.0103C99.8977 34.7027 100.715 34.5489 101.649 34.5489C102.467 34.5489 103.24 34.6808 103.97 34.9444C104.7 35.1933 105.364 35.6034 105.962 36.1746L104.78 38.0419C104.196 37.5879 103.642 37.2584 103.116 37.0533C102.591 36.8336 102.058 36.7238 101.518 36.7238C101.211 36.7238 100.919 36.7604 100.642 36.8336C100.379 36.9069 100.16 37.0314 99.9853 37.2071C99.8248 37.3682 99.7445 37.6025 99.7445 37.9101C99.7445 38.1884 99.8175 38.408 99.9634 38.5691C100.124 38.7156 100.357 38.8474 100.664 38.9646C100.985 39.0817 101.372 39.2135 101.824 39.36C102.744 39.6236 103.517 39.8946 104.145 40.1728C104.787 40.4511 105.269 40.7953 105.59 41.2053C105.911 41.6008 106.072 42.15 106.072 42.853C106.072 43.9953 105.656 44.8887 104.824 45.5331C103.992 46.1775 102.875 46.4997 101.474 46.4997Z" fill="#FFBC26"/>
</g>
<defs>
<filter id="filter0_d_657_2544" x="-2" y="0.5" width="115" height="24.1309" filterUnits="userSpaceOnUse" color-interpolation-filters="sRGB">
<feFlood flood-opacity="0" result="BackgroundImageFix"/>
<feColorMatrix in="SourceAlpha" type="matrix" values="0 0 0 0 0 0 0 0 0 0 0 0 0 0 0 0 0 0 127 0" result="hardAlpha"/>
<feOffset dy="1"/>
<feGaussianBlur stdDeviation="1"/>
<feColorMatrix type="matrix" values="0 0 0 0 0 0 0 0 0 0 0 0 0 0 0 0 0 0 0.25 0"/>
<feBlend mode="normal" in2="BackgroundImageFix" result="effect1_dropShadow_657_2544"/>
<feBlend mode="normal" in="SourceGraphic" in2="effect1_dropShadow_657_2544" result="shape"/>
</filter>
<filter id="filter1_d_657_2544" x="2.92834" y="29.2432" width="105.143" height="20.2568" filterUnits="userSpaceOnUse" color-interpolation-filters="sRGB">
<feFlood flood-opacity="0" result="BackgroundImageFix"/>
<feColorMatrix in="SourceAlpha" type="matrix" values="0 0 0 0 0 0 0 0 0 0 0 0 0 0 0 0 0 0 127 0" result="hardAlpha"/>
<feOffset dy="1"/>
<feGaussianBlur stdDeviation="1"/>
<feColorMatrix type="matrix" values="0 0 0 0 0 0 0 0 0 0 0 0 0 0 0 0 0 0 0.25 0"/>
<feBlend mode="normal" in2="BackgroundImageFix" result="effect1_dropShadow_657_2544"/>
<feBlend mode="normal" in="SourceGraphic" in2="effect1_dropShadow_657_2544" result="shape"/>
</filter>
</defs>
</svg>
