<?xml version="1.0" encoding="utf-8"?>
<!-- Generator: Adobe Illustrator 27.5.0, SVG Export Plug-In . SVG Version: 6.00 Build 0)  -->
<svg version="1.1" xmlns="http://www.w3.org/2000/svg" xmlns:xlink="http://www.w3.org/1999/xlink" x="0px" y="0px"
	 viewBox="0 0 500 500" style="enable-background:new 0 0 500 500;" xml:space="preserve">
<g id="BACKGROUND">
	<rect style="fill:#FFFFFF;" width="500" height="500"/>
</g>
<g id="OBJECT">
	<g>
		<path style="fill:#F5F5F5;" d="M37.712,141.585c-3.673,0.578-6.182,4.024-5.604,7.698l27.773,176.462
			c0.578,3.673,4.024,6.182,7.698,5.604l128.514-20.227c3.673-0.578,6.182-4.025,5.604-7.698l-23.198-147.394l-42.684-29.886
			L37.712,141.585z"/>
		<path style="fill:#D6D6D6;" d="M145.786,161.18l32.713-5.149l-42.684-29.886l4.937,31.371
			C141.131,159.918,143.384,161.558,145.786,161.18z"/>
		<path style="fill:none;stroke:#262626;stroke-width:0.274;stroke-linecap:round;stroke-linejoin:round;stroke-miterlimit:10;" d="
			M135.815,126.145l4.937,31.371c0.378,2.402,2.631,4.042,5.033,3.664l32.713-5.149"/>
		<g>
			<path style="fill:#D6D6D6;" d="M108.669,245.785c-0.707-4.495-0.934-8.17-0.68-11.021c0.254-2.851,1.191-5.575,2.813-8.173
				c0.927-1.552,2.036-2.936,3.329-4.155c1.291-1.217,2.459-2.475,3.506-3.773c1.044-1.295,1.878-2.697,2.501-4.201
				c0.622-1.504,0.76-3.359,0.412-5.57c-0.587-3.732-2.027-6.182-4.319-7.344c-2.291-1.162-4.848-1.521-7.666-1.078
				c-4.04,0.636-6.644,2.199-7.813,4.685c-1.171,2.489-1.647,5.667-1.428,9.537l-14.744,2.321c-0.588-3.733-0.513-7.22,0.227-10.461
				c0.739-3.239,2.065-6.103,3.977-8.591c1.911-2.486,4.359-4.551,7.342-6.192c2.981-1.64,6.378-2.761,10.189-3.361
				c8.229-1.295,14.989-0.641,20.28,1.962c5.289,2.605,8.529,7.677,9.716,15.221c0.384,2.44,0.471,4.611,0.265,6.518
				c-0.209,1.907-0.691,3.681-1.446,5.323c-0.758,1.642-1.758,3.225-3.001,4.748c-1.245,1.524-2.672,3.115-4.285,4.774
				c-1.473,1.56-2.636,2.974-3.492,4.239c-0.855,1.267-1.454,2.553-1.794,3.855c-0.342,1.304-0.484,2.635-0.426,3.991
				c0.057,1.358,0.219,2.876,0.482,4.551L108.669,245.785z M111.685,267.917l-2.357-14.973l15.43-2.429l2.357,14.973
				L111.685,267.917z"/>
		</g>
	</g>
	<path style="fill:#FEC02D;" d="M184.165,254.637c17.012,16.721,36.798,39.285,55.184,68.437
		c12.791,20.281,22.274,39.579,29.35,56.561c-16.306,7.338-32.611,14.675-48.917,22.013l-41.92-142.656L184.165,254.637z"/>
	<path style="fill:#FEC02D;" d="M153.265,243.101l31.361,9.802c8.593,13.628,13.556,25.7,16.469,34.095
		c13.569,39.1,9.217,74.882,7.987,84.994c0,0-0.021,0.173-3.975,29.656l0,0H61.718c-0.475-10.686-0.383-25.465,2.14-42.802
		c2.992-20.558,5.77-39.642,18.206-60.602c5.057-8.523,22.653-35.796,56.392-50.073
		C144.474,245.624,149.677,244.053,153.265,243.101z"/>
	<path style="fill:#FF7129;" d="M79.498,302.8c17.456,5.6,39.685,11.096,65.808,13.773c24.335,2.494,45.786,1.899,63.172,0.267
		c0.498,4.101,0.997,8.202,1.496,12.304c-18.568,1.514-40.649,1.971-65.355-0.189c-27.677-2.42-51.654-7.514-71.131-12.983
		C75.491,311.581,77.494,307.191,79.498,302.8z"/>
	<polygon style="opacity:0.5;fill:#E8A600;" points="214.055,291.834 221.158,293.419 195.295,401.648 180.652,401.648 	"/>
	<polygon style="fill:#E8A600;" points="156.037,380.916 162.12,379.024 176.062,386.231 179.578,377.705 161.884,370.9 
		154.661,374.285 	"/>
	<path style="opacity:0.5;fill:#E8A600;" d="M61.494,385.444c14.215,3.555,31.208,6.735,50.516,8.277
		c16.927,1.352,32.239,1.174,45.468,0.284c0-5.433,0-10.866,0-16.3c-31.556-3.525-63.113-7.051-94.669-10.576L61.494,385.444z"/>
	<g>
		<path style="fill:#F7A99C;" d="M165.928,265.636L165.928,265.636c-8.867-1.52-14.823-9.94-13.303-18.807l5.923-34.55l32.11,5.505
			l-5.923,34.55C183.216,261.2,174.795,267.156,165.928,265.636z"/>
		<path style="fill:#FF7769;" d="M186.394,242.662l-19.016-14.401c-0.105,1.847-0.404,10.531,6.024,17.692
			c4.104,4.572,8.956,6.303,11.224,6.95L186.394,242.662z"/>
		<path style="fill:#F7A99C;" d="M159.646,201.445c-0.01-0.539-1.246-1.568-1.621-1.912c-0.633-0.581-1.342-1.081-2.102-1.482
			c-1.477-0.778-3.177-1.197-4.851-1.11c-3.328,0.172-6.635,2.363-7.745,5.562c-0.645,1.858-0.55,3.914-0.038,5.813
			c0.769,2.855,2.47,5.44,4.739,7.336c1.88,1.572,4.141,2.671,6.522,3.236c0.477,0.113,5.428,0.863,5.424,0.668
			C159.865,213.519,159.755,207.482,159.646,201.445z"/>
		<path style="fill:#F7A99C;" d="M155.188,201.008c-0.072,2.643-0.19,16.627,10.374,28.375c1.946,2.164,14.884,16.551,29.613,13.22
			c18.927-4.281,22.083-33.583,22.233-35.173c0.51-5.377,2.011-21.212-9.463-31.814c-9.364-8.652-21.242-8.157-22.93-8.06
			c-1.78,0.102-13.152,0.94-21.688,10.449C155.58,186.635,155.306,196.683,155.188,201.008z"/>
		<path style="fill:#262626;" d="M207.396,205.695c-0.112,2.311,1.343,4.26,3.251,4.353c1.908,0.093,3.546-1.705,3.658-4.016
			c0.113-2.311-1.343-4.26-3.251-4.353C209.146,201.586,207.508,203.384,207.396,205.695z"/>
		
			<path style="fill:none;stroke:#262626;stroke-width:1.7049;stroke-linecap:round;stroke-linejoin:round;stroke-miterlimit:10;" d="
			M200.651,208.001l2.384,4.767c0.438,0.876,0.03,1.94-0.883,2.297l-3.174,1.243"/>
		<path style="fill:#FF7769;" d="M177.868,214.134c-0.126,2.593,1.874,4.798,4.467,4.924c2.593,0.126,4.798-1.874,4.924-4.467
			c0.126-2.593-1.874-4.798-4.467-4.924C180.199,209.541,177.994,211.541,177.868,214.134z"/>
		
			<path style="fill:none;stroke:#262626;stroke-width:1.7049;stroke-linecap:round;stroke-linejoin:round;stroke-miterlimit:10;" d="
			M155.458,212.671c0.104-0.506,0.752-3.944-1.577-6.914c-1.824-2.327-4.321-2.896-5.006-3.029"/>
		
			<path style="fill:none;stroke:#262626;stroke-width:1.7049;stroke-linecap:round;stroke-linejoin:round;stroke-miterlimit:10;" d="
			M154.03,206.484c-0.15-0.051-1.957-0.633-3.497,0.541c-1.266,0.965-1.419,2.407-1.441,2.647"/>
		<path style="fill:#FF7769;" d="M213.97,212.917c0.897,0.044,1.714,0.349,2.406,0.82c-0.525,2.47-1.293,5.443-2.4,8.547
			c-0.155,0.008-0.305,0.032-0.463,0.024c-2.593-0.126-4.593-2.331-4.467-4.924C209.172,214.79,211.377,212.79,213.97,212.917z"/>
		
			<polyline style="fill:none;stroke:#262626;stroke-width:1.7049;stroke-linecap:round;stroke-linejoin:round;stroke-miterlimit:10;" points="
			188.955,200.728 192.868,205.168 187.264,207.142 		"/>
		<path style="fill:#FFFFFF;" d="M187.264,225.775l14.088,1.605c-0.038-0.288-0.655-4.449-3.999-5.962
			C194.075,219.935,189.456,221.577,187.264,225.775z"/>
		<path style="fill:#262626;" d="M155.338,197.768c0.776,0.302,2.606,1.133,4.062,3.09c1.341,1.804,1.663,3.621,1.758,4.452
			c14.612-1.387,23.047-5.493,28.127-9.19c0,0,0.371-0.27,11.083-8.408c1.726,1.861,4.429,4.356,8.255,6.497
			c3.469,1.941,6.68,2.932,9.032,3.463c7.679-1.787,13.033-7.524,13.211-13.514c0.187-6.309-5.421-11.085-9.401-13.07
			c-6.495-3.239-9.483,0.54-19.006-1.955c-7.676-2.011-7.389-4.9-14.587-6.644c-2.175-0.527-11.212-2.717-20.293,2.064
			c-7.659,4.033-13.727,12.17-14.331,21.554C152.916,191.242,154.309,195.384,155.338,197.768z"/>
	</g>
	<path style="fill:#FEC02D;" d="M153.265,243.101c-12.886,2.938-36.991,10.359-59.445,30.445c0,0-22.63,20.244-38.064,57.784
		c-1.367,3.326-2.897,6.836-4.586,14.216c-1.309,5.721-1.899,10.996-2.092,15.603c-0.144,3.444,1.978,6.577,5.217,7.753
		c2.846,1.033,6.122,2.185,9.754,3.396c6.727,2.243,21.648,8.355,38.55,10.701c35.246,4.892,54.813,6.115,54.813,6.115l2.562-60.841
		l-46.588-5.897L153.265,243.101z"/>
	<path style="fill:none;stroke:#262626;stroke-linecap:round;stroke-linejoin:round;stroke-miterlimit:10;" d="M209.638,367.129"/>
	<path style="fill:none;stroke:#262626;stroke-linecap:round;stroke-linejoin:round;stroke-miterlimit:10;" d="M190.914,274.387
		c5.852,20.466,9.478,37.6,11.772,50.094"/>
	<polygon style="opacity:0.5;fill:#E8A600;" points="129.973,270.718 103.833,329.605 119.654,329.605 	"/>
	
		<rect x="187.957" y="288.744" transform="matrix(0.9621 0.2726 -0.2726 0.9621 101.5151 -40.1611)" style="fill:#4450E4;" width="14.675" height="113.045"/>
	<path style="fill:#F7A99C;" d="M158.956,342.598c0,0,26.491-2.638,29.315-1.767c2.824,0.871,12.49,6.343,13.856,7.904
		c1.366,1.561,1.854,3.025,1.659,4.489c-0.195,1.464-2.147,3.122-2.147,3.122c1.529,2.382,1.582,4.014,1.256,5.117
		c-0.582,1.971-2.894,4.029-2.915,4.055l0,0c0.171,0.61,0.363,1.485,0.415,2.549c0.05,1.011,0.15,3.047-0.855,4.906
		c-1.492,2.759-4.563,3.546-5.235,3.702c0,0,1.187,2.211-0.374,4.065c-1.561,1.854-6.245,4.196-11.807,3.415
		c-5.562-0.781-20.004-7.904-20.004-7.904l-4.642,1.453L158.956,342.598z"/>
	<circle style="opacity:0.5;fill:#CDEBF5;" cx="231.317" cy="227.38" r="64.454"/>
	<path style="fill:#4450E4;" d="M231.317,154.55c-40.223,0-72.83,32.607-72.83,72.83c0,40.223,32.607,72.83,72.83,72.83
		s72.83-32.607,72.83-72.83C304.147,187.157,271.54,154.55,231.317,154.55z M231.317,288.318c-33.655,0-60.938-27.283-60.938-60.938
		c0-33.655,27.283-60.938,60.938-60.938c33.655,0,60.938,27.283,60.938,60.938C292.255,261.035,264.972,288.318,231.317,288.318z"/>
	<path style="fill:none;stroke:#262626;stroke-width:1.5;stroke-linecap:round;stroke-linejoin:round;stroke-miterlimit:10;" d="
		M201.639,356.346c0,0-9.756-1.819-14.685-4.112c-4.93-2.293-6.764-3.554-6.764-3.554"/>
	<path style="fill:none;stroke:#262626;stroke-width:1.5;stroke-linecap:round;stroke-linejoin:round;stroke-miterlimit:10;" d="
		M199.98,365.518c0,0-11.307-1.131-15.893-3.768c-4.586-2.637-6.226-4.357-6.226-4.357"/>
	<path style="fill:none;stroke:#262626;stroke-width:1.5;stroke-linecap:round;stroke-linejoin:round;stroke-miterlimit:10;" d="
		M196.252,375.985c-4.842-0.19-8.48-1.271-11.018-2.312c-4.23-1.735-9.516-5.044-9.516-5.045l0,0"/>
	<polygon style="fill:#FF7769;" points="158.956,342.598 157.478,377.705 162.12,376.252 160.632,342.435 	"/>
	<path style="fill:none;stroke:#262626;stroke-linecap:round;stroke-linejoin:round;stroke-miterlimit:10;" d="M128.139,274.387
		c0,0-24.301,53.427-23.615,54.803c0.685,1.376,55.451-0.917,55.451-0.917l-2.562,60.841c0,0-42.76-2.703-59.676-6.901
		s-36.243-10.776-36.243-10.776"/>
	<g>
		<g>
			<path style="fill:#FFFFFF;" d="M234.642,184.233c-0.377,0.84-0.435,1.823-0.086,2.753c0.702,1.872,2.789,2.82,4.66,2.118
				c3.401-1.276,7.085-1.814,10.652-1.555c3.987,0.289,7.04,1.487,8.505,2.175c1.738,0.817,5.354,2.517,8.049,6.227
				c3.754,5.167,3.44,11.213,3.131,13.573c-0.26,1.982,1.137,3.799,3.119,4.059c1.983,0.26,3.801-1.139,4.059-3.119
				c0.524-3.999,0.642-11.756-4.452-18.768c-3.789-5.216-8.721-7.534-10.827-8.524c-2.345-1.102-6.167-2.489-11.062-2.844
				c-4.602-0.333-9.346,0.357-13.718,1.998C235.731,182.679,235.023,183.383,234.642,184.233z"/>
		</g>
	</g>
	<path style="fill:none;stroke:#FFFFFF;stroke-linecap:round;stroke-linejoin:round;stroke-miterlimit:10;" d="M107.884,268.96
		c-8.838,7.858-20.189,19.592-30.55,35.851c-10.638,16.695-16.53,32.349-19.896,43.868"/>
	<g>
		<path style="fill:#2A83C6;" d="M279.094,401.648H170.865c-4.221,0-7.643-3.422-7.643-7.643v-4.892h115.873V401.648z"/>
		<path style="fill:#2A83C6;" d="M359.834,401.648H241.757c-4.637,0-7.937-3.963-7.37-8.853l8.924-76.995
			c0.567-4.889,4.785-8.853,9.422-8.853H370.81c4.637,0,7.937,3.964,7.37,8.853l-8.924,76.995
			C368.689,397.684,364.471,401.648,359.834,401.648z"/>
		<path style="fill:#3897E9;" d="M371.234,401.648H253.157c-4.637,0-7.937-3.963-7.37-8.853l8.924-76.995
			c0.567-4.889,4.785-8.853,9.422-8.853H382.21c4.637,0,7.937,3.964,7.37,8.853l-8.924,76.995
			C380.09,397.684,375.871,401.648,371.234,401.648z"/>
		<path style="fill:#5FBBFF;" d="M389.58,320.227l-8.924,73.024c0,0,0.399,8.396-13.358,8.396c-13.758,0-77.274,0-77.274,0
			c8.318-0.053,37.447-1.252,64.204-23.159C380.932,356.625,387.876,328.381,389.58,320.227z"/>
		<path style="fill:none;stroke:#262626;stroke-linecap:round;stroke-linejoin:round;stroke-miterlimit:10;" d="M387.121,329.605
			c-2.674,8.656-9.171,25.604-24.741,41.432c-15.36,15.615-31.932,22.396-40.511,25.252"/>
		<polygon style="fill:#FEC02D;" points="317.708,362.005 313.581,362.005 316.211,345.266 320.339,345.266 		"/>
		<polygon style="fill:#FEC02D;" points="323.126,362.005 318.999,362.005 320.812,350.463 324.94,350.463 		"/>
	</g>
	<path style="fill:none;stroke:#262626;stroke-linecap:round;stroke-linejoin:round;stroke-miterlimit:10;" d="M202.357,164.835
		c-5.956,3.361-20.998,12.886-30.867,32.099c-9.842,19.159-8.854,36.882-8.125,43.686"/>
	
		<line style="fill:none;stroke:#262626;stroke-linecap:round;stroke-linejoin:round;stroke-miterlimit:10;" x1="209.638" y1="367.712" x2="207.317" y2="351.339"/>
	<g>
		<path style="fill:#F5F5F5;" d="M438.549,351.367H283.845c-3.545,0-6.419-2.874-6.419-6.419v-113.26
			c0-3.545,2.874-6.419,6.419-6.419h154.703c3.545,0,6.419,2.874,6.419,6.419v113.26
			C444.968,348.494,442.094,351.367,438.549,351.367z"/>
		<path style="opacity:0.5;fill:#D6D6D6;" d="M444.968,239.858v-8.17c0-3.545-2.874-6.419-6.419-6.419H283.845
			c-3.545,0-6.419,2.874-6.419,6.419v8.17H444.968z"/>
		<path style="fill:#F5F5F5;" d="M286.14,233.328c0,1.098-0.89,1.987-1.987,1.987c-1.098,0-1.987-0.89-1.987-1.987
			s0.89-1.987,1.987-1.987C285.25,231.34,286.14,232.23,286.14,233.328z"/>
		<path style="fill:#F5F5F5;" d="M292.422,233.328c0,1.098-0.89,1.987-1.987,1.987c-1.098,0-1.987-0.89-1.987-1.987
			s0.89-1.987,1.987-1.987C291.532,231.34,292.422,232.23,292.422,233.328z"/>
		<path style="fill:#F5F5F5;" d="M298.842,233.328c0,1.098-0.89,1.987-1.987,1.987c-1.098,0-1.987-0.89-1.987-1.987
			s0.89-1.987,1.987-1.987C297.952,231.34,298.842,232.23,298.842,233.328z"/>
		<path style="opacity:0.5;fill:#D6D6D6;" d="M379.308,269.82v-8.176c0-2.682-2.174-4.856-4.856-4.856h-47.46
			c-2.682,0-4.856,2.174-4.856,4.856v8.176v54.469c0,2.682,2.174,4.856,4.856,4.856h75.893c2.682,0,4.856-2.174,4.856-4.856v-49.613
			c0-2.682-2.174-4.856-4.856-4.856H379.308z"/>
		<polygon style="fill:#D6D6D6;" points="374.5,281.24 364.938,290.802 355.377,281.24 349.607,287.01 359.169,296.571 
			349.607,306.133 355.377,311.903 364.938,302.341 374.5,311.903 380.27,306.133 370.708,296.571 380.27,287.01 		"/>
		<path style="fill:none;stroke:#262626;stroke-linecap:round;stroke-linejoin:round;stroke-miterlimit:10;" d="M277.426,344.948"/>
		<path style="fill:none;stroke:#262626;stroke-linecap:round;stroke-linejoin:round;stroke-miterlimit:10;" d="M283.845,351.367"/>
		<path style="fill:none;stroke:#262626;stroke-linecap:round;stroke-linejoin:round;stroke-miterlimit:10;" d="M438.549,351.367"/>
		<path style="fill:none;stroke:#262626;stroke-width:0.274;stroke-linecap:round;stroke-linejoin:round;stroke-miterlimit:10;" d="
			M283.845,225.269h154.703c3.545,0,6.419,2.874,6.419,6.419v113.26"/>
		<path style="fill:none;stroke:#262626;stroke-linecap:round;stroke-linejoin:round;stroke-miterlimit:10;" d="M277.426,231.688"/>
	</g>
	<path style="fill:#FDB6D6;" d="M457.499,422.968H42.686c-5.887,0-10.66-4.773-10.66-10.66v0c0-5.887,4.773-10.66,10.66-10.66
		h414.814c5.887,0,10.66,4.773,10.66,10.66v0C468.159,418.195,463.387,422.968,457.499,422.968z"/>
	<g>
		<path style="fill:#FF7129;" d="M430.392,254.439c-0.735-5.854-0.881-10.625-0.436-14.309c0.445-3.684,1.769-7.177,3.976-10.478
			c1.265-1.973,2.758-3.722,4.482-5.25c1.722-1.525,3.287-3.108,4.696-4.748c1.405-1.637,2.542-3.419,3.411-5.343
			c0.867-1.923,1.121-4.323,0.759-7.202c-0.61-4.861-2.377-8.093-5.3-9.692c-2.923-1.599-6.221-2.167-9.891-1.706
			c-5.261,0.661-8.699,2.581-10.315,5.756c-1.618,3.178-2.363,7.278-2.236,12.302l-19.201,2.411
			c-0.611-4.861-0.372-9.378,0.717-13.547c1.088-4.167,2.923-7.826,5.502-10.973c2.578-3.145,5.832-5.722,9.765-7.728
			c3.929-2.005,8.377-3.32,13.34-3.943c10.717-1.346,19.451-0.224,26.202,3.362c6.749,3.589,10.743,10.293,11.977,20.118
			c0.399,3.177,0.424,5.995,0.08,8.457c-0.347,2.463-1.045,4.743-2.09,6.84c-1.048,2.097-2.409,4.108-4.081,6.031
			c-1.675,1.925-3.589,3.928-5.746,6.014c-1.972,1.963-3.537,3.747-4.696,5.353c-1.159,1.608-1.988,3.25-2.481,4.923
			c-0.496,1.676-0.733,3.395-0.714,5.155c0.018,1.763,0.167,3.736,0.441,5.917L430.392,254.439z M433.405,283.243l-2.449-19.5
			l20.095-2.523l2.449,19.5L433.405,283.243z"/>
	</g>
	
		<ellipse transform="matrix(0.7071 -0.7071 0.7071 0.7071 15.0002 281.312)" style="fill:#F5F5F5;" cx="347.074" cy="122.549" rx="51.426" ry="51.426"/>
	
		<ellipse transform="matrix(0.7071 -0.7071 0.7071 0.7071 15.0002 281.312)" style="opacity:0.5;fill:#D6D6D6;" cx="347.074" cy="122.549" rx="41.732" ry="41.732"/>
	<rect x="345.698" y="93.178" style="fill:#D6D6D6;" width="2.751" height="33.957"/>
	
		<rect x="354.537" y="120.297" transform="matrix(0.5 -0.866 0.866 0.5 64.251 373.8805)" style="fill:#D6D6D6;" width="2.752" height="22.001"/>
</g>
</svg>
