<svg width="218" height="145" viewBox="0 0 218 145" fill="none" xmlns="http://www.w3.org/2000/svg">
<path d="M43.5908 82.1628C43.9779 82.1628 44.3465 82.0709 44.6967 81.8686L48.7331 79.5516C49.5441 79.0919 50.4841 78.8896 51.4241 78.9999C56.3267 79.57 59.7549 80.4894 60.7686 80.7836C60.9714 80.8388 61.211 80.7653 61.34 80.5998C61.5059 80.3975 61.7086 80.0665 61.8745 79.5884C62.022 79.1286 62.0404 78.7425 62.022 78.4666C62.0035 78.246 61.8561 78.0437 61.6349 77.9885C60.0498 77.5288 53.0276 75.6348 43.5908 75.6348C34.1541 75.6348 27.1318 77.5288 25.5468 77.9885C25.3256 78.0437 25.1781 78.246 25.1597 78.4666C25.1413 78.7241 25.1597 79.1103 25.3072 79.5884C25.4546 80.0665 25.6758 80.3975 25.8417 80.5998C25.9707 80.7653 26.2103 80.8388 26.413 80.7836C27.4267 80.4894 30.8734 79.57 35.7576 78.9999C36.6976 78.8896 37.6376 79.0919 38.4485 79.5516L42.485 81.8686C42.8352 82.0709 43.2222 82.1628 43.5908 82.1628Z" fill="#BAC0CC"/>
<path d="M36.8635 69.1267C37.0847 69.5129 37.4349 69.7703 37.8404 69.8806C38.2459 69.991 38.6698 69.9358 39.0568 69.7151C39.4439 69.4945 39.7019 69.1451 39.8125 68.7405C39.9231 68.336 39.8678 67.913 39.6466 67.5269L36.0157 61.2563C35.9051 61.054 35.6655 60.9804 35.4443 60.9988C35.1494 61.0172 34.7439 61.1643 34.2647 61.4401C33.7855 61.716 33.4538 61.9918 33.2879 62.2309C33.1589 62.4148 33.122 62.6538 33.2326 62.8561L36.8635 69.1267Z" fill="#BAC0CC"/>
<path d="M33.5459 73.6131C33.9329 73.8338 34.3753 73.8705 34.7623 73.7786C35.1678 73.6683 35.518 73.4108 35.7392 73.0246C35.9603 72.6385 35.9972 72.1971 35.905 71.811C35.8129 71.4248 35.5364 71.057 35.1494 70.8364L28.8643 67.2138C28.6616 67.1034 28.422 67.1402 28.2377 67.2689C27.9981 67.4344 27.7216 67.7654 27.4452 68.2435C27.1687 68.7217 27.0212 69.1262 27.0028 69.4204C26.9844 69.6595 27.0765 69.8802 27.2608 69.9905L33.5459 73.6131Z" fill="#BAC0CC"/>
<path d="M45.1943 66.901C45.1943 67.3423 45.01 67.7469 44.7335 68.0411C44.4386 68.3353 44.0516 68.5008 43.5908 68.5008C43.1485 68.5008 42.743 68.317 42.4481 68.0411C42.1532 67.7469 41.9873 67.3607 41.9873 66.901V59.6742C41.9873 59.4351 42.1348 59.2513 42.3559 59.1593C42.614 59.0306 43.0379 58.957 43.5908 58.957C44.1437 58.957 44.5677 59.0306 44.8257 59.1593C45.0284 59.2696 45.1943 59.4351 45.1943 59.6742V66.901Z" fill="#BAC0CC"/>
<path d="M50.3182 69.1267C50.0971 69.5129 49.7469 69.7703 49.3414 69.8806C48.9359 69.991 48.512 69.9358 48.1249 69.7151C47.7379 69.4945 47.4798 69.1451 47.3693 68.7405C47.2587 68.336 47.314 67.913 47.5351 67.5269L51.1661 61.2563C51.2767 61.054 51.5163 60.9804 51.7374 60.9988C52.0323 61.0172 52.4378 61.1643 52.917 61.4401C53.3962 61.716 53.728 61.9918 53.8939 62.2309C54.0229 62.4148 54.0598 62.6538 53.9492 62.8561L50.3182 69.1267Z" fill="#BAC0CC"/>
<path d="M53.6358 73.6131C53.2487 73.8338 52.8064 73.8705 52.4193 73.7786C52.0138 73.6683 51.6636 73.4108 51.4425 73.0246C51.2213 72.6385 51.1844 72.1971 51.2766 71.811C51.3872 71.4064 51.6452 71.057 52.0323 70.8364L58.3173 67.2138C58.52 67.1034 58.7596 67.1402 58.9439 67.2689C59.1835 67.4344 59.46 67.7654 59.7365 68.2435C60.013 68.7217 60.1604 69.1262 60.1788 69.4204C60.1973 69.6595 60.1051 69.8802 59.9208 69.9905L53.6358 73.6131Z" fill="#BAC0CC"/>
<path d="M93.7235 68.6289H96.7462C96.8567 68.6289 96.9489 68.7025 97.0042 68.7944L100.008 76.481L102.921 68.7944C102.957 68.6841 103.068 68.6289 103.179 68.6289H106.146C106.349 68.6289 106.478 68.8312 106.386 68.9967L99.0132 85.8777C98.9763 85.9696 98.8657 86.0432 98.7736 86.0432H96.1564C95.9721 86.0432 95.8246 85.8409 95.9168 85.6754L98.4418 79.7726L93.5023 68.9967C93.3917 68.8312 93.5207 68.6289 93.7235 68.6289Z" fill="#BAC0CC"/>
<path d="M138.345 70.3401V68.9058C138.345 68.7587 138.474 68.63 138.622 68.63H141.294C141.442 68.63 141.571 68.7587 141.571 68.9058V80.3621C141.571 80.5092 141.442 80.6379 141.294 80.6379H138.622C138.474 80.6379 138.345 80.5092 138.345 80.3621V78.8542C137.774 79.7368 136.521 80.8953 134.475 80.8953C130.567 80.8953 128.54 77.9163 128.54 74.588C128.54 70.2482 131.563 68.3909 134.383 68.3909C136.244 68.3725 137.534 69.2552 138.345 70.3401ZM131.765 74.6063C131.765 76.6659 133.037 78.2473 135.083 78.2473C137.129 78.2473 138.437 76.8682 138.437 74.7534C138.437 72.6387 137.166 71.0205 134.991 71.0205C132.945 71.0205 131.765 72.602 131.765 74.6063Z" fill="#BAC0CC"/>
<path d="M143.985 80.3618V68.9055C143.985 68.7584 144.114 68.6297 144.262 68.6297H146.934C147.082 68.6297 147.211 68.7584 147.211 68.9055V70.4686C147.837 69.3836 149.017 68.3906 151.026 68.3906C153.09 68.3906 155.394 69.402 155.394 74.0544V80.3618C155.394 80.5089 155.265 80.6376 155.118 80.6376H152.445C152.298 80.6376 152.169 80.5089 152.169 80.3618V74.1096C152.169 72.9878 151.892 71.057 149.902 71.057C147.911 71.057 147.211 72.8039 147.211 74.4222V80.3618C147.211 80.5089 147.082 80.6376 146.934 80.6376H144.262C144.096 80.6192 143.985 80.5089 143.985 80.3618Z" fill="#BAC0CC"/>
<path d="M157.68 80.3618V68.9055C157.68 68.7584 157.809 68.6297 157.956 68.6297H160.629C160.776 68.6297 160.905 68.7584 160.905 68.9055V70.4686C161.532 69.3836 162.711 68.3906 164.72 68.3906C166.785 68.3906 169.088 69.402 169.088 74.0544V80.3618C169.088 80.5089 168.959 80.6376 168.812 80.6376H166.139C165.992 80.6376 165.863 80.5089 165.863 80.3618V74.1096C165.863 72.9878 165.587 71.057 163.596 71.057C161.605 71.057 160.905 72.8039 160.905 74.4222V80.3618C160.905 80.5089 160.776 80.6376 160.629 80.6376H157.956C157.809 80.6192 157.68 80.5089 157.68 80.3618Z" fill="#BAC0CC"/>
<path d="M185.75 68.63H188.349C188.496 68.63 188.625 68.7587 188.625 68.9058V71.278C189.141 68.9242 191.169 68.1151 192.643 68.4645C192.772 68.4829 192.846 68.5932 192.846 68.7219V71.3331C192.846 71.4986 192.699 71.6274 192.514 71.5906C189.787 71.0573 188.681 72.5284 188.681 74.588V80.3621C188.681 80.5092 188.552 80.6379 188.404 80.6379H185.732C185.584 80.6379 185.455 80.5092 185.455 80.3621V68.9058C185.474 68.7587 185.603 68.63 185.75 68.63Z" fill="#BAC0CC"/>
<path d="M76.0112 71.2415C75.1818 70.9656 74.7394 70.8001 74.0759 70.5795C73.394 70.3404 72.2328 69.6784 72.2328 68.6118C72.2328 67.5453 72.9701 66.8649 74.463 66.8649C75.8269 66.8649 76.5826 67.5269 77.0802 68.5935C77.1539 68.7406 77.3198 68.7957 77.4673 68.7222L79.6606 67.4533C79.7711 67.3798 79.8264 67.2327 79.7711 67.104C79.1076 65.6512 77.5594 63.9043 74.4998 63.9043C71.0901 63.9043 68.9521 65.9271 68.9521 68.5935C68.9521 71.2415 70.703 72.6206 73.0806 73.4297C73.9469 73.7239 74.2971 73.8527 75.0343 74.0917C76.4351 74.5698 77.0802 75.1951 77.0802 76.0593C77.0802 76.9236 76.5273 77.9534 74.3524 77.9534C72.3618 77.9534 71.6614 76.9052 71.256 75.9122C71.2007 75.7651 71.0164 75.6916 70.8689 75.7835L68.565 77.1075C68.4544 77.1811 68.3991 77.3098 68.4544 77.4385C69.3391 79.6084 71.7536 80.8956 74.463 80.8956C77.6516 80.8956 80.3425 79.2774 80.3425 76.0042C80.3425 72.7309 76.8406 71.5173 76.0112 71.2415Z" fill="#BAC0CC"/>
<path d="M93.613 77.493C93.5392 77.3642 93.3549 77.3091 93.2259 77.401C92.1938 78.155 90.9773 78.1734 90.0558 76.7574C89.2816 75.5621 88.3417 74.091 88.3417 74.091L92.3965 69.0709C92.544 68.887 92.4149 68.6295 92.1938 68.6295H89.0236C88.9315 68.6295 88.8577 68.6663 88.8024 68.7399L85.3005 73.5394V63.8852C85.3005 63.7381 85.1715 63.6094 85.0241 63.6094H82.3515C82.2041 63.6094 82.0751 63.7381 82.0751 63.8852V80.3616C82.0751 80.5087 82.2041 80.6375 82.3515 80.6375H85.0425C85.1899 80.6375 85.319 80.5087 85.319 80.3616V75.0105C85.319 75.0105 87.1068 77.824 87.7887 78.8721C88.7103 80.3065 90.0005 80.8949 91.4012 80.8949C92.7283 80.8949 93.5761 80.5455 94.5898 79.5525C94.682 79.4606 94.7004 79.3318 94.6451 79.2215L93.613 77.493Z" fill="#BAC0CC"/>
<path d="M112.8 73.705C111.952 73.3924 111.657 73.2821 111.012 73.043C110.367 72.8039 109.795 72.4546 109.795 71.9397C109.795 71.4248 110.275 70.8547 111.252 70.8547C112.099 70.8547 112.615 71.1857 112.91 71.7742C112.984 71.9213 113.15 71.9581 113.279 71.8845L115.159 70.7996C115.288 70.726 115.325 70.5605 115.251 70.4318C114.735 69.5307 113.721 68.3906 111.27 68.3906C108.266 68.3906 106.717 70.1192 106.717 72.0316C106.717 73.9441 108.284 74.8451 109.722 75.4152C111.344 76.0772 111.454 76.1139 111.657 76.1875C112.155 76.3898 112.763 76.7024 112.763 77.2724C112.763 77.8425 112.099 78.3574 111.086 78.3574C110.146 78.3574 109.077 77.9712 108.634 76.8863C108.579 76.7392 108.395 76.6656 108.247 76.7576L106.349 77.8425C106.238 77.9161 106.183 78.0448 106.238 78.1735C106.791 79.6078 108.432 80.8767 111.086 80.8767C113.961 80.8767 115.878 79.3504 115.878 77.1989C115.878 75.0474 114.403 74.2934 112.8 73.705Z" fill="#BAC0CC"/>
<path d="M123.6 71.2417C124.798 71.2417 125.683 71.6095 126.513 72.1979C126.642 72.2899 126.826 72.2531 126.9 72.1244L128.005 70.2119C128.079 70.0832 128.042 69.9361 127.913 69.8625C126.771 69.0902 125.351 68.373 123.435 68.373C121.536 68.373 119.785 68.8879 118.532 70.1568C117.279 71.4072 116.707 72.8967 116.707 74.662C116.707 76.7951 117.592 78.1559 118.55 79.1121C119.509 80.0684 121.241 80.8775 123.453 80.8775C125.444 80.8775 126.918 80.05 127.932 79.388C128.042 79.3144 128.079 79.1489 128.005 79.0386L126.918 77.1445C126.844 77.0158 126.66 76.9606 126.531 77.0526C125.812 77.5675 124.78 78.0088 123.619 78.0088C122.31 78.0088 119.933 77.2733 119.933 74.6253C119.933 71.9773 122.292 71.2417 123.6 71.2417Z" fill="#BAC0CC"/>
<path d="M177.825 78.2295C176.756 78.2295 175.742 77.972 175.005 77.3836C174.268 76.7951 173.917 76.1883 173.917 75.4711H183.465C183.612 75.4711 183.741 75.3424 183.741 75.1953C183.686 72.3634 182.764 71.0394 181.88 70.1384C180.958 69.2189 179.391 68.373 177.327 68.373C175.263 68.373 173.678 69.127 172.59 70.1935C171.521 71.2601 170.71 72.6209 170.71 74.6804C170.71 76.74 171.54 78.1007 172.553 79.1121C173.567 80.1235 175.226 80.8775 177.604 80.8775C179.852 80.8775 181.751 80.0867 183.114 78.5237C183.225 78.395 183.188 78.1927 183.041 78.1191L181.142 77.0158C181.05 76.9606 180.921 76.9606 180.829 77.0526C179.889 77.9353 178.691 78.2295 177.825 78.2295ZM177.309 70.9475C178.838 70.9475 180.239 71.8669 180.46 73.5219H174.028C174.452 71.7382 175.779 70.9475 177.309 70.9475Z" fill="#BAC0CC"/>
</svg>
