<svg width="251" height="169" viewBox="0 0 251 169" fill="none" xmlns="http://www.w3.org/2000/svg">
<g clip-path="url(#clip0_690_3266)">
<mask id="mask0_690_3266" style="mask-type:luminance" maskUnits="userSpaceOnUse" x="-160" y="-705" width="423" height="848">
<path d="M-159.756 142.617H262.237V-704.719H-159.756V142.617Z" fill="white"/>
</mask>
<g mask="url(#mask0_690_3266)">
<path d="M93.1223 90.3868C93.9153 90.9678 94.781 91.4416 95.697 91.796C96.6115 92.1407 97.5814 92.3134 98.5581 92.3056C99.6711 92.3056 100.529 92.0822 101.134 91.6366C101.737 91.1911 102.039 90.5705 102.039 89.7762C102.039 89.2922 101.972 88.8737 101.84 88.525C101.697 88.1608 101.475 87.8335 101.19 87.567C100.833 87.2383 100.433 86.9597 100.001 86.7385C99.4136 86.4296 98.8189 86.1339 98.2178 85.8517C97.4862 85.5166 96.7725 85.1431 96.0798 84.7329C95.481 84.3845 94.9372 83.9484 94.4663 83.439C94.0175 82.946 93.671 82.3683 93.447 81.7394C93.2116 81.0903 93.0939 80.3117 93.0939 79.4007C93.0939 78.4498 93.2626 77.6043 93.6043 76.857C93.9432 76.1111 94.4195 75.4805 95.0335 74.968C95.685 74.4337 96.4352 74.0336 97.241 73.7909C98.0987 73.519 99.0572 73.3852 100.115 73.3852C101.19 73.3852 102.189 73.519 103.115 73.7909C104.039 74.0627 104.822 74.4101 105.464 74.8371L104.755 78.3829C104.129 77.8849 103.439 77.4741 102.704 77.1616C101.911 76.8267 101.058 76.6586 100.199 76.6676C99.2925 76.6676 98.5468 76.8826 97.9626 77.3082C97.3771 77.7338 97.085 78.316 97.085 79.0519C97.085 79.496 97.1559 79.8747 97.2963 80.185C97.4395 80.4939 97.6465 80.7771 97.9201 81.0277C98.2333 81.3078 98.5806 81.547 98.9537 81.7394C99.3677 81.9629 99.8498 82.2006 100.397 82.4525C101.151 82.8019 101.897 83.1697 102.633 83.5557C103.332 83.9258 103.934 84.3571 104.445 84.8496C104.955 85.3436 105.359 85.9201 105.663 86.5791C105.965 87.2382 106.115 88.0438 106.115 88.9919C106.115 91.1042 105.426 92.7384 104.049 93.8899C102.67 95.0415 100.764 95.6194 98.3299 95.6194C97.1417 95.6194 96.0699 95.4586 95.1171 95.1397C94.2603 94.8638 93.4386 94.4883 92.6686 94.0209L93.1223 90.3868ZM107.768 79.691H111.532V90.0651C111.532 90.8608 111.686 91.4758 111.986 91.9113C112.289 92.3469 112.769 92.5676 113.428 92.5676C114.015 92.5676 114.501 92.3839 114.888 92.0138C115.274 91.6452 115.628 91.1512 115.949 90.5306V79.691H119.658V95.2707H116.062V93.3789C115.893 93.6372 115.709 93.8849 115.509 94.1205C115.029 94.7009 114.404 95.1425 113.697 95.4002C113.276 95.5515 112.831 95.6253 112.383 95.618C111.552 95.618 110.843 95.4913 110.259 95.2408C109.697 95.0059 109.205 94.6299 108.83 94.149C108.461 93.675 108.192 93.1042 108.023 92.4366C107.855 91.7662 107.768 91.0245 107.768 90.2117V79.691ZM121.974 79.691H125.57V81.5501C125.703 81.318 125.882 81.0718 126.11 80.8085C126.334 80.5465 126.598 80.3046 126.9 80.0825C127.201 79.859 127.546 79.6768 127.934 79.5302C128.322 79.385 128.757 79.3124 129.249 79.3124C130.911 79.3124 132.096 79.8021 132.804 80.78C133.513 81.7593 133.864 83.0717 133.864 84.7172V95.2707H130.1V84.8624C130.1 84.0696 129.948 83.4546 129.646 83.0191C129.346 82.5821 128.864 82.3643 128.203 82.3643C127.616 82.3643 127.132 82.5479 126.747 82.9166C126.358 83.2838 126.004 83.7778 125.683 84.3998V95.2707H121.974V79.691ZM136.323 73.7325H147.957L147.815 77.0748H140.285V82.4212H146.429V85.7649H140.285V91.927H148.324V95.2707H136.323V73.7325ZM149.437 95.2707C150.222 93.8744 151.025 92.4883 151.845 91.1128C152.22 90.4936 152.613 89.863 153.017 89.2239C153.424 88.5833 153.815 87.9641 154.193 87.362C153.779 86.7229 153.376 86.0738 152.992 85.4162C152.606 84.7557 152.22 84.108 151.845 83.4675C151.466 82.8483 151.106 82.2191 150.77 81.5785C150.428 80.9394 150.078 80.3102 149.719 79.691H153.94L154.872 81.5216L155.522 82.77C155.769 83.2354 156.023 83.6824 156.288 84.108C156.533 83.7194 156.806 83.2753 157.108 82.77C157.411 82.2661 157.673 81.8205 157.9 81.4348C158.073 81.1615 158.232 80.8825 158.384 80.5907C158.534 80.3003 158.695 79.9999 158.866 79.691H162.828C162.447 80.3487 162.087 80.9793 161.739 81.5785C161.388 82.1792 161.028 82.7999 160.649 83.4376C160.289 84.0397 159.916 84.6546 159.531 85.2852C159.142 85.9144 158.762 86.5094 158.384 87.0716L159.586 89.0502C160.01 89.7449 160.412 90.4352 160.791 91.1128C161.167 91.7904 161.549 92.4665 161.935 93.1483C162.322 93.8259 162.712 94.5319 163.111 95.2707H158.893L157.704 93.0885L156.203 90.4452L154.703 92.9718C154.245 93.7241 153.812 94.4908 153.403 95.2707H149.437ZM164.466 79.691H168.173V80.8227C168.515 80.3957 168.953 80.0369 169.488 79.748C170.029 79.4576 170.657 79.3124 171.372 79.3124C173.109 79.3124 174.473 79.9857 175.462 81.3309C176.455 82.6789 176.947 84.6788 176.947 87.3335C176.947 90.1235 176.455 92.2017 175.462 93.5682C174.473 94.9347 173.157 95.618 171.514 95.618C171.023 95.618 170.602 95.5611 170.241 95.4443C169.908 95.3394 169.589 95.1976 169.288 95.0216C169.018 94.8565 168.792 94.6728 168.612 94.4693C168.452 94.2906 168.306 94.1008 168.173 93.9013V101.632H164.466V79.691ZM168.173 91.2267C168.415 91.5957 168.717 91.921 169.067 92.1889C169.452 92.4978 169.907 92.653 170.441 92.653C171.175 92.653 171.812 92.243 172.35 91.4188C172.885 90.5947 173.157 89.2922 173.157 87.51C173.157 85.6297 172.893 84.2817 172.364 83.4675C171.834 82.6547 171.165 82.2476 170.355 82.2476C169.807 82.2476 169.359 82.3927 169.009 82.6846C168.701 82.9332 168.421 83.2148 168.173 83.5244V91.2267ZM178.616 79.691H182.212V82.1294C182.381 81.7835 182.585 81.4476 182.822 81.1287C183.295 80.4595 183.97 79.9601 184.746 79.7039C185.17 79.5587 185.653 79.4875 186.204 79.4875C186.582 79.4875 186.911 79.516 187.193 79.5743L186.854 82.77C186.72 82.7318 186.583 82.7033 186.445 82.6846C186.27 82.6626 186.094 82.6526 185.919 82.6547C185.108 82.6547 184.409 82.834 183.826 83.1942C183.24 83.5514 182.74 84.1649 182.326 85.0389V95.2707H178.616V79.691ZM198.833 94.1946C198.341 94.6202 197.723 94.9632 196.979 95.2266C196.232 95.487 195.266 95.6194 194.077 95.6194C193.06 95.6194 192.126 95.4244 191.272 95.0358C190.432 94.6549 189.687 94.0886 189.094 93.3789C188.468 92.6199 187.993 91.7472 187.695 90.8082C187.352 89.7431 187.184 88.6293 187.196 87.51C187.196 84.9137 187.746 82.8981 188.842 81.4632C189.932 80.0312 191.427 79.3138 193.312 79.3138C195.201 79.3138 196.62 79.9288 197.574 81.1586C198.529 82.3885 199.005 84.0496 199.005 86.1435C199.005 86.4923 198.992 86.8524 198.977 87.2197C198.965 87.5116 198.936 87.8025 198.889 88.0908H190.938C190.955 88.7499 191.077 89.3506 191.303 89.8915C191.53 90.4367 191.827 90.905 192.195 91.3021C192.561 91.6993 192.982 92.0081 193.456 92.233C193.925 92.4551 194.437 92.5694 194.956 92.5676C196.388 92.5676 197.598 92.0907 198.578 91.1413L198.833 94.1946ZM195.38 85.4745C195.322 83.1301 194.635 81.9572 193.312 81.9572C192.672 81.9572 192.137 82.2376 191.716 82.8013C191.289 83.3621 191.041 84.2546 190.963 85.4745H195.38ZM200.79 91.1142C201.387 91.5515 202.028 91.9264 202.701 92.233C203.405 92.566 204.173 92.7395 204.951 92.7412C205.196 92.7412 205.446 92.717 205.703 92.6686C205.955 92.6216 206.176 92.5391 206.366 92.4224C206.558 92.3024 206.719 92.1379 206.834 91.9427C206.957 91.7391 207.017 91.4829 207.017 91.1712C207.017 90.5904 206.792 90.1292 206.338 89.7904C205.887 89.4516 205.31 89.1356 204.614 88.8467C204.094 88.6205 203.587 88.3628 203.098 88.0752C202.616 87.7962 202.194 87.4659 201.841 87.0873C201.473 86.7011 201.184 86.2472 200.988 85.7507C200.779 85.2368 200.676 84.6318 200.676 83.9343C200.676 83.2169 200.83 82.5721 201.13 82.0013C201.431 81.4305 201.826 80.9465 202.317 80.548C202.809 80.1522 203.38 79.8448 204.032 79.6327C204.683 79.4206 205.358 79.3138 206.056 79.3138C206.962 79.3138 207.753 79.4106 208.433 79.6028C209.07 79.7805 209.687 80.0243 210.274 80.3302L209.789 83.3251C209.272 82.9811 208.723 82.6888 208.15 82.4525C207.52 82.1952 206.846 82.0665 206.166 82.0739C205.714 82.0739 205.29 82.2049 204.893 82.4668C204.5 82.7287 204.298 83.1102 204.298 83.6155C204.298 83.8674 204.349 84.0895 204.442 84.2831C204.536 84.4753 204.685 84.6617 204.893 84.8354C205.147 85.039 205.422 85.2146 205.714 85.3592C206.056 85.5329 206.471 85.7279 206.962 85.94C207.451 86.1521 207.926 86.3969 208.391 86.6674C208.85 86.9378 209.257 87.2581 209.607 87.6268C209.964 88.0056 210.247 88.449 210.439 88.9335C210.652 89.4374 210.754 90.0281 210.754 90.7043C210.754 92.2772 210.242 93.4885 209.226 94.3397C208.208 95.1924 206.84 95.6194 205.118 95.6194C204.16 95.6194 203.311 95.5212 202.572 95.329C201.826 95.1299 201.104 94.8468 200.421 94.4849L200.79 91.1142ZM212.076 91.1142C212.674 91.5503 213.314 91.9251 213.987 92.233C214.69 92.5664 215.458 92.7399 216.235 92.7412C216.482 92.7412 216.732 92.717 216.984 92.6686C217.238 92.6216 217.462 92.5391 217.652 92.4224C217.844 92.3024 218.004 92.1379 218.12 91.9427C218.24 91.7391 218.303 91.4829 218.303 91.1712C218.303 90.5904 218.076 90.1292 217.623 89.7904C217.168 89.4516 216.596 89.1356 215.897 88.8467C215.366 88.6146 214.863 88.357 214.381 88.0752C213.899 87.7962 213.479 87.4659 213.122 87.0873C212.757 86.7002 212.468 86.2465 212.273 85.7507C212.063 85.2368 211.962 84.6318 211.962 83.9343C211.962 83.2169 212.111 82.5721 212.413 82.0013C212.714 81.4305 213.112 80.9465 213.603 80.548C214.092 80.1522 214.665 79.8448 215.315 79.6327C215.966 79.4206 216.644 79.3138 217.339 79.3138C218.247 79.3138 219.036 79.4106 219.716 79.6028C220.353 79.7798 220.97 80.0236 221.556 80.3302L221.076 83.3251C220.558 82.9808 220.009 82.6885 219.434 82.4525C218.805 82.1956 218.131 82.0669 217.452 82.0739C217.001 82.0739 216.576 82.2049 216.177 82.4668C215.783 82.7287 215.585 83.1102 215.585 83.6155C215.585 83.8674 215.633 84.0895 215.725 84.2831C215.821 84.4753 215.97 84.6617 216.177 84.8354C216.432 85.0399 216.708 85.2156 217.001 85.3592C217.339 85.5329 217.755 85.7279 218.247 85.94C218.737 86.1544 219.214 86.3973 219.676 86.6674C220.136 86.9378 220.543 87.2581 220.891 87.6268C221.249 88.0059 221.531 88.4492 221.725 88.9335C221.935 89.4374 222.038 90.0281 222.038 90.7043C222.038 92.2772 221.531 93.4885 220.509 94.3397C219.492 95.1924 218.121 95.6194 216.404 95.6194C215.443 95.6194 214.594 95.5212 213.856 95.329C213.11 95.1302 212.388 94.847 211.706 94.4849L212.076 91.1142ZM55.9759 92.1647C48.6105 92.7056 38.4179 94.3341 31.0964 93.9355C31.874 95.5156 32.8399 96.995 33.9731 98.3411C34.6146 99.0995 35.3066 99.8134 36.0445 100.478C39.997 104.055 45.1291 106.037 50.4508 106.039C55.7973 106.039 60.9085 104.097 64.8457 100.572C66.4733 99.1154 67.7905 97.551 68.8382 95.8344C69.5471 94.6714 70.1298 93.4401 70.5977 92.1206C67.4445 91.4914 62.0469 91.7178 55.9759 92.1647ZM38.5937 66.6366C38.5277 66.6215 38.4592 66.6205 38.3927 66.6338C38.3263 66.647 38.2634 66.6742 38.2081 66.7135C37.8126 66.9869 37.4267 67.2742 37.0511 67.5747C36.9586 67.6473 36.8951 67.7511 36.8725 67.8669C36.8498 67.9827 36.8695 68.1028 36.9278 68.2052L40.5786 74.5538L40.7672 74.8086L40.7587 74.8214L40.5049 74.6307L34.1759 70.9625C34.0744 70.9037 33.9551 70.8836 33.8401 70.9058C33.725 70.928 33.6217 70.9911 33.5492 71.0835C33.2513 71.4613 32.9661 71.8492 32.6943 72.2464C32.6567 72.3026 32.6309 72.3658 32.6186 72.4323C32.6062 72.4988 32.6075 72.5671 32.6224 72.6331C32.6373 72.6991 32.6654 72.7613 32.705 72.816C32.7447 72.8706 32.7951 72.9166 32.853 72.951L43.6496 79.2057L43.8935 79.2711C44.0296 79.2711 44.1657 79.2142 44.2621 79.1032C44.5045 78.8256 44.7654 78.5608 45.039 78.3203C45.2163 78.1651 45.2588 77.9075 45.1411 77.7053L38.9113 66.8715C38.8777 66.8122 38.8321 66.7606 38.7774 66.7202C38.7226 66.6797 38.6601 66.6512 38.5937 66.6366ZM68.2115 72.6293C68.2264 72.5634 68.2276 72.4951 68.2149 72.4287C68.2022 72.3623 68.1759 72.2993 68.1378 72.2436C67.867 71.8507 67.5778 71.4592 67.2772 71.0806C67.2051 70.9881 67.1021 70.9249 66.9871 70.9026C66.8722 70.8804 66.7532 70.9006 66.6519 70.9596L60.3258 74.625L60.072 74.8129L60.0635 74.8058L60.252 74.551L63.9043 68.1967C63.9628 68.0944 63.9826 67.9744 63.9603 67.8586C63.9379 67.7428 63.8747 67.639 63.7823 67.5661C63.4066 67.2672 63.0153 66.9782 62.624 66.7078C62.5684 66.6696 62.5056 66.6434 62.4394 66.6306C62.3733 66.6179 62.3053 66.619 62.2396 66.6338C62.1739 66.6486 62.1119 66.6769 62.0576 66.7168C62.0032 66.7567 61.9576 66.8074 61.9236 66.8658L55.6924 77.7053L55.6271 77.9502C55.6271 78.0882 55.6867 78.2235 55.7959 78.3203C56.0724 78.5623 56.3375 78.8256 56.5742 79.1017C56.6492 79.1876 56.7515 79.2447 56.8636 79.2634C56.9758 79.2821 57.091 79.2612 57.1896 79.2042L67.9804 72.9482C68.0389 72.9141 68.0897 72.8681 68.1295 72.8132C68.1693 72.7583 68.1972 72.6957 68.2115 72.6293ZM59.9174 65.2886C59.8967 65.2241 59.8631 65.1644 59.8188 65.1133C59.7744 65.0621 59.7202 65.0206 59.6594 64.9911C59.2298 64.7861 58.7846 64.594 58.3351 64.416C58.2264 64.3728 58.1058 64.3702 57.9952 64.4085C57.8847 64.4469 57.7915 64.5238 57.7326 64.6253L54.0804 70.9753L53.9541 71.2671L53.9414 71.2614L53.9782 70.9482V63.6118C53.9784 63.4933 53.9358 63.3787 53.8584 63.2893C53.781 63.1998 53.674 63.1414 53.5572 63.125C53.0831 63.056 52.607 63.0024 52.1295 62.9641C52.0621 62.9589 51.9944 62.9679 51.9307 62.9905C51.867 63.013 51.8086 63.0486 51.7594 63.0951C51.7092 63.1402 51.6691 63.1955 51.6418 63.2574C51.6144 63.3192 51.6004 63.3861 51.6006 63.4538L51.6034 75.9687L51.6687 76.2136C51.7036 76.2743 51.751 76.3269 51.8077 76.3679C51.8644 76.4089 51.9291 76.4373 51.9976 76.4513C52.3577 76.5224 52.7178 76.6164 53.0609 76.736C53.1685 76.772 53.2852 76.7698 53.3914 76.7296C53.4975 76.6894 53.5866 76.6138 53.6437 76.5153L59.8735 65.68C59.9415 65.5605 59.9585 65.4196 59.9174 65.2886ZM71.7419 83.1571C71.7875 83.1071 71.8224 83.0482 71.8443 82.984C71.8663 82.9198 71.8749 82.8518 71.8695 82.7842C71.8305 82.3023 71.7757 81.8219 71.705 81.3437C71.688 81.2276 71.6299 81.1216 71.5413 81.045C71.4528 80.9684 71.3398 80.9264 71.2229 80.9266L63.9185 80.9238L63.6051 80.9608L63.6023 80.9479L63.8915 80.8227L70.2177 77.1545C70.4276 77.0306 70.5197 76.773 70.4276 76.5452C70.2504 76.0983 70.0561 75.6527 69.8519 75.2228C69.8226 75.1623 69.7813 75.1084 69.7305 75.0644C69.6797 75.0205 69.6205 74.9874 69.5565 74.9673C69.4925 74.9471 69.4251 74.9404 69.3583 74.9473C69.2916 74.9543 69.2271 74.9749 69.1686 75.0079L58.372 81.2668L58.1948 81.4462C58.1596 81.507 58.1378 81.5746 58.1307 81.6446C58.1237 81.7145 58.1315 81.7852 58.1537 81.8518C58.2742 82.2006 58.372 82.5607 58.4401 82.9194C58.4623 83.0307 58.5221 83.1309 58.6095 83.203C58.6968 83.2751 58.8062 83.3147 58.9193 83.3151H71.3817C71.4493 83.3148 71.5161 83.3006 71.578 83.2735C71.64 83.2463 71.6957 83.2067 71.7419 83.1571ZM31.2779 74.9624C31.2136 74.9832 31.1542 75.0168 31.1033 75.0614C31.0523 75.1059 31.0109 75.1604 30.9815 75.2214C30.7757 75.658 30.5847 76.1014 30.4088 76.5509C30.3651 76.6601 30.3622 76.7813 30.4005 76.8925C30.4387 77.0036 30.5157 77.0972 30.6172 77.1559L36.942 80.8213L37.2312 80.9479L37.2256 80.9622L36.915 80.9252H29.6077C29.49 80.925 29.3763 80.9676 29.2875 81.0451C29.1986 81.1225 29.1406 81.2296 29.1242 81.3465C29.055 81.8234 29.0011 82.3024 28.9626 82.7828C28.958 82.8502 28.967 82.918 28.9891 82.9818C29.0113 83.0457 29.0462 83.1044 29.0916 83.1543C29.1376 83.2037 29.1931 83.2432 29.2548 83.2703C29.3165 83.2975 29.383 83.3118 29.4503 83.3123L41.9142 83.3094L42.1595 83.2454C42.2771 83.1742 42.3665 83.0575 42.3962 82.9137C42.4643 82.5508 42.5593 82.192 42.6784 81.8461C42.7149 81.7383 42.7133 81.621 42.6738 81.5142C42.6343 81.4074 42.5593 81.3175 42.4615 81.2597L31.6678 75.0051C31.609 74.9719 31.5442 74.951 31.4772 74.9436C31.4102 74.9363 31.3424 74.9427 31.2779 74.9624ZM49.0712 63.0951C49.0211 63.0497 48.9624 63.0149 48.8986 62.9929C48.8347 62.9709 48.7671 62.9621 48.6998 62.967C48.2208 63.006 47.7432 63.0611 47.2678 63.1321C47.1517 63.1492 47.0456 63.2076 46.9688 63.2967C46.892 63.3858 46.8497 63.4996 46.8496 63.6175L46.8481 70.9511L46.885 71.2642L46.8722 71.2671L46.7461 70.9781L43.0938 64.6239C43.035 64.5212 42.941 64.4436 42.8293 64.4053C42.7177 64.3671 42.5961 64.3709 42.487 64.416C42.0418 64.594 41.598 64.7861 41.1699 64.9925C41.1086 65.0211 41.054 65.0622 41.0095 65.1132C40.9649 65.1642 40.9315 65.224 40.9114 65.2888C40.8912 65.3535 40.8848 65.4217 40.8924 65.4891C40.9001 65.5565 40.9216 65.6215 40.9558 65.68L47.1884 76.5182L47.3685 76.699C47.429 76.7336 47.4962 76.7551 47.5656 76.762C47.6349 76.7688 47.705 76.7609 47.7711 76.7388C48.1199 76.6192 48.4772 76.521 48.8359 76.4513C48.9471 76.429 49.0473 76.3687 49.1194 76.2808C49.1914 76.1929 49.231 76.0826 49.2315 75.9687L49.2286 63.4566C49.2291 63.3886 49.2154 63.3213 49.1883 63.259C49.1612 63.1967 49.1213 63.1409 49.0712 63.0951Z" fill="#BAC0CC"/>
<path d="M70.5083 86.0187C66.0083 86.0187 62.5616 87.1176 53.6266 89.0222C40.9855 91.7182 32.0066 89.4919 29.9479 89.2257C29.6417 89.1873 29.4404 89.3439 29.5439 89.6898C29.7665 90.7218 30.5279 92.9324 31.1006 93.9359C38.4236 94.3345 48.6161 92.7061 55.9802 92.1651C62.0526 91.7182 67.4488 91.4919 70.6034 92.121C71.1138 90.6805 71.4895 89.1417 71.7376 87.4792C71.8808 86.5283 71.7659 86.0187 70.5083 86.0187Z" fill="#BAC0CC"/>
<path d="M29.4064 87.5602C29.829 87.7267 35.6731 89.7252 44.7456 89.8548C47.3203 89.8932 50.6054 89.5089 52.5676 89.079C50.6047 89.4017 48.6189 89.5635 46.6299 89.563C41.4025 89.5445 33.4727 87.7039 29.7098 86.0186C29.6325 85.9851 29.5477 85.9727 29.464 85.9827C29.3804 85.9927 29.3008 86.0247 29.2335 86.0755C29.165 86.1254 29.1105 86.1923 29.0755 86.2697C29.0405 86.347 29.026 86.4322 29.0336 86.5168C29.0534 86.7588 29.0775 87.0008 29.1031 87.2427C29.1257 87.3609 29.1612 87.462 29.4064 87.5602Z" fill="#BAC0CC"/>
</g>
</g>
<defs>
<clipPath id="clip0_690_3266">
<rect width="251" height="168" fill="white" transform="translate(0 0.5)"/>
</clipPath>
</defs>
</svg>
