<svg width="283" height="189" viewBox="0 0 283 189" fill="none" xmlns="http://www.w3.org/2000/svg">
<path d="M45.223 94.8742C46.6538 89.4897 45.022 83.8472 41.119 80.8572C35.8026 84.2286 32.7368 90.568 33.8441 97.1727C34.2091 99.356 34.9993 101.363 36.1121 103.121C40.2691 101.962 43.9242 99.7664 45.223 94.8742ZM52.3989 110.413C61.1738 108.937 67.0902 100.615 65.6159 91.8275C64.3896 84.5133 58.4367 79.183 51.4172 78.4466C50.0003 78.2976 48.5366 78.338 47.06 78.5852C45.3592 78.8705 43.7156 79.4289 42.1925 80.239C49.9258 82.8669 54.0839 86.8608 54.3722 90.9538C54.5137 93.4804 53.3414 95.308 51.8011 96.7977L62.7364 96.0326C63.0459 96.0112 63.1427 96.3725 62.7682 96.4801L36.6854 103.971C39.3405 107.635 43.4635 110.072 48.0429 110.552C49.4945 110.704 50.96 110.657 52.3989 110.413ZM51.5181 77.4844C60.1078 78.3806 66.8073 85.6523 66.8105 94.4939C66.8137 103.942 59.1697 111.604 49.7374 111.608C40.3053 111.611 32.657 103.954 32.6538 94.5055C32.6506 85.0568 40.2936 77.3939 49.7259 77.3906C50.33 77.3906 50.9288 77.4237 51.5181 77.4844Z" fill="white"/>
<path d="M33.8442 97.1755C34.2092 99.3579 34.9994 101.364 36.1122 103.123C40.2692 101.963 43.9242 99.7682 45.2242 94.876C46.6538 89.4914 45.022 83.8489 41.1181 80.8587C35.8026 84.2304 32.7369 90.5708 33.8442 97.1755ZM65.616 91.8283C67.0903 100.616 61.1739 108.939 52.399 110.415C50.9597 110.659 49.4939 110.706 48.042 110.553C43.4646 110.074 39.3394 107.637 36.6855 103.973L62.7684 96.4818C63.1428 96.3731 63.046 96.013 62.7365 96.0343L51.8013 96.7994C53.3415 95.3096 54.5138 93.4821 54.3724 90.9555C54.084 86.8625 49.9258 82.8686 42.1924 80.2407C43.7156 79.4306 45.3593 78.8721 47.0601 78.5869C48.5367 78.3396 50.0004 78.2991 51.4173 78.4483C58.4368 79.1846 64.3895 84.515 65.616 91.8283Z" fill="#BAC0CC"/>
<path d="M155.267 101.211V95.5851H149.636V101.211H146.546V87.8113H149.637V93.1491H155.267V87.8114H158.381V101.211H155.267ZM88.662 87.8114V96.2C88.662 97.1271 88.798 97.9294 89.0672 98.5816C89.3342 99.2285 89.7214 99.7665 90.2182 100.18C90.7192 100.598 91.3245 100.906 92.015 101.095C92.7169 101.289 93.5094 101.388 94.3699 101.388C95.2295 101.388 96.0145 101.289 96.7017 101.095C97.3782 100.906 97.9548 100.599 98.4175 100.184C98.8791 99.7709 99.2419 99.2328 99.4951 98.5848C99.7504 97.9348 99.8781 97.1324 99.8781 96.2V87.8114H96.9868V96.1103C96.9868 96.9555 96.7772 97.6385 96.3645 98.1394C95.9422 98.6498 95.2709 98.9087 94.37 98.9087C93.4839 98.9087 92.8179 98.6508 92.3883 98.1415C91.967 97.6417 91.7531 96.9587 91.7531 96.1104V87.8114H88.662ZM79.7478 101.213V90.3134H76.114V87.8115H86.4941V89.0115C86.4941 89.7296 85.9122 90.3136 85.1952 90.3136H82.8389V101.213L79.7478 101.213ZM129.421 87.8103H132.513V101.209H129.421V87.8103ZM119.127 94.9617L119.232 95.0949L123.18 100.192C123.682 100.841 124.441 101.214 125.261 101.214H127.722L122.066 94.0058L121.983 93.8992L122.066 93.7937L126.716 87.8061H123.499L119.235 93.5816L119.127 93.7213L119.126 93.4794V87.8061H116.035V101.206H119.126V95.2004L119.127 94.9617ZM105.824 93.944H107.626C108.275 93.944 108.77 93.7649 109.095 93.4144C109.418 93.067 109.582 92.6152 109.582 92.0728C109.582 91.5165 109.422 91.0594 109.108 90.712C108.789 90.3581 108.291 90.1802 107.626 90.1802H105.824V93.944ZM112.006 101.208C111.09 101.208 110.227 100.721 109.754 99.9371L107.349 95.9591H105.824V101.208H102.735V87.8114H108.243C109.658 87.8114 110.766 88.1812 111.537 88.9111C112.305 89.6389 112.694 90.6363 112.694 91.8746C112.694 92.5032 112.527 93.1405 112.197 93.7681C111.872 94.3852 111.295 94.8904 110.481 95.2687L110.303 95.3517L114.056 101.208H112.006ZM135.049 100.641V98.0721C136.034 98.5262 137.301 98.979 138.612 98.979C140.12 98.979 140.885 98.4611 140.885 97.4681C140.885 96.3023 139.859 96.1732 137.804 95.2878C136.405 94.6624 135.072 93.6904 135.072 91.4462C135.072 88.8344 137.061 87.6035 139.815 87.6035C141.279 87.6035 142.526 87.9487 143.224 88.2078V90.712C142.526 90.3881 141.279 89.999 140.033 89.999C138.678 89.999 138.044 90.4957 138.044 91.3588C138.044 92.2657 138.81 92.5469 140.186 93.0649C141.956 93.9493 144.012 94.3383 144.012 97.3604C144.012 99.9722 141.935 101.397 139.159 101.397C137.454 101.397 136.099 101.094 135.049 100.641ZM230.527 101.209V87.8091H238.902V89.025C238.902 89.7347 238.326 90.3111 237.619 90.3111H233.618V93.1938H238.11V95.4305H233.618V98.7082H238.902V101.209L230.527 101.209ZM199.968 101.208V87.8094H201.469C202.345 87.8094 203.058 88.5233 203.058 89.4004V98.7947H207.991V101.208L199.968 101.208ZM180.834 101.206V87.8156H183.925L183.924 101.206H180.834ZM189.849 93.9419H191.651C192.3 93.9419 192.794 93.7639 193.12 93.4132C193.442 93.0649 193.606 92.6141 193.606 92.0707C193.606 91.5155 193.447 91.0572 193.132 90.7098C192.814 90.3571 192.315 90.1781 191.651 90.1781H189.849L189.849 93.9419ZM196.03 101.206C195.115 101.206 194.251 100.719 193.778 99.9359L191.373 95.9581H189.849V101.206H186.76V87.8103H192.267C193.683 87.8103 194.79 88.18 195.561 88.9101C196.329 89.6378 196.719 90.6353 196.719 91.8735C196.719 92.5022 196.552 93.1395 196.221 93.7671C195.896 94.383 195.319 94.8881 194.506 95.2675L194.327 95.3506L198.08 101.206L196.03 101.206ZM170.21 96.3267L171.424 92.9402C171.693 92.1783 171.963 91.3737 172.143 90.7813H172.188C172.345 91.395 172.615 92.157 172.885 92.9402L174.054 96.3267H170.21ZM174.029 87.8082H170.48L165.435 101.208H167.662C168.228 101.208 168.727 100.847 168.903 100.31L169.421 98.7372H174.846L175.64 101.208H178.988L174.029 87.8082ZM241.385 100.641V98.0734C242.368 98.5262 243.636 98.979 244.948 98.979C246.456 98.979 247.221 98.4611 247.221 97.4681C247.221 96.3023 246.193 96.1732 244.139 95.2888C242.74 94.6622 241.406 93.6915 241.406 91.4462C241.406 88.8344 243.396 87.6035 246.15 87.6035C247.614 87.6035 248.86 87.9487 249.56 88.2078V90.712C248.86 90.3891 247.615 90.0002 246.369 90.0002C245.014 90.0002 244.38 90.4967 244.38 91.3599C244.38 92.2655 245.144 92.5471 246.521 93.0649C248.292 93.9493 250.346 94.3383 250.346 97.3604C250.346 99.9722 248.27 101.397 245.494 101.397C243.789 101.397 242.434 101.094 241.385 100.641ZM215.901 87.8114H217.817C218.727 87.8114 219.572 88.2813 220.053 89.0549L223.784 95.0586C224.205 95.7257 224.693 96.607 224.982 97.2305H225.048C225.004 96.6284 224.982 95.7897 224.982 95.1875V87.8115H227.691V101.209H224.302L219.765 93.9612C219.342 93.2952 218.899 92.4992 218.587 91.897H218.544C218.566 92.4779 218.609 93.1663 218.609 93.8109V101.209H215.901V87.8114ZM209.98 101.206V87.8156H213.071V101.206H209.98Z" fill="#BAC0CC"/>
</svg>
